0
SECTION
2
HEADER
9
$INSUNITS
70
4
9
$ACADVER
1
AC1014
9
$HANDSEED
5
FFFF
0
ENDSEC
0
SECTION
2
TABLES
0
TABLE
2
VPORT
5
8
100
AcDbSymbolTable
0
ENDTAB
0
TABLE
2
LTYPE
5
5
100
AcDbSymbolTable
0
LTYPE
5
14
100
AcDbSymbolTableRecord
100
AcDbLinetypeTableRecord
2
BYBLOCK
70
0
0
LTYPE
5
15
100
AcDbSymbolTableRecord
100
AcDbLinetypeTableRecord
2
BYLAYER
70
0
0
ENDTAB
0
TABLE
2
LAYER
5
2
100
AcDbSymbolTable
70
2
0
LAYER
5
50
100
AcDbSymbolTableRecord
100
AcDbLayerTableRecord
2
0
70
0
6
CONTINUOUS
0
ENDTAB
0
TABLE
2
STYLE
5
3
100
AcDbSymbolTable
70
1
0
STYLE
5
11
100
AcDbSymbolTableRecord
100
AcDbTextStyleTableRecord
2
STANDARD
70
0
0
ENDTAB
0
TABLE
2
VIEW
5
6
100
AcDbSymbolTable
70
0
0
ENDTAB
0
TABLE
2
UCS
5
7
100
AcDbSymbolTable
70
0
0
ENDTAB
0
TABLE
2
APPID
5
9
100
AcDbSymbolTable
70
2
0
APPID
5
12
100
AcDbSymbolTableRecord
100
AcDbRegAppTableRecord
2
ACAD
70
0
0
ENDTAB
0
TABLE
2
DIMSTYLE
5
A
100
AcDbSymbolTable
70
1
0
ENDTAB
0
TABLE
2
BLOCK_RECORD
5
1
100
AcDbSymbolTable
70
1
0
BLOCK_RECORD
5
1F
100
AcDbSymbolTableRecord
100
AcDbBlockTableRecord
2
*MODEL_SPACE
0
BLOCK_RECORD
5
1B
100
AcDbSymbolTableRecord
100
AcDbBlockTableRecord
2
*PAPER_SPACE
0
ENDTAB
0
ENDSEC
0
SECTION
2
BLOCKS
0
BLOCK
5
20
100
AcDbEntity
100
AcDbBlockBegin
2
*MODEL_SPACE
0
ENDBLK
5
21
100
AcDbEntity
100
AcDbBlockEnd
0
BLOCK
5
1C
100
AcDbEntity
100
AcDbBlockBegin
2
*PAPER_SPACE
0
ENDBLK
5
1D
100
AcDbEntity
100
AcDbBlockEnd
0
ENDSEC
0
SECTION
2
ENTITIES
0
LWPOLYLINE
5
100
100
AcDbEntity
8
0
100
AcDbPolyline
90
2
70
1
43
0.0
10
-3.4805633195274535
20
85.132453564738
42
1.003162643168571
10
-6.6791366804708634
20
85.037446435205027
42
1.0031626431328236
0
CIRCLE
5
101
100
AcDbEntity
8
0
100
AcDbCircle
10
-20.2761
20
83.551300000000012
30
0
40
1.7249999999999999
210
0
220
-0
230
1
0
CIRCLE
5
102
100
AcDbEntity
8
0
100
AcDbCircle
10
-4.9657
20
65.874899999999997
30
0
40
0.5
210
0
220
-0
230
1
0
LWPOLYLINE
5
103
100
AcDbEntity
8
0
100
AcDbPolyline
90
2
70
1
43
0.0
10
-18.765559229187051
20
63.734101548444983
42
1.0442748680874552
10
-21.853040770812985
20
62.20189845155501
42
1.0442748680874552
0
CIRCLE
5
104
100
AcDbEntity
8
0
100
AcDbCircle
10
-6.8707000000000011
20
47.459899999999998
30
0
40
0.5
210
0
220
-0
230
1
0
CIRCLE
5
105
100
AcDbEntity
8
0
100
AcDbCircle
10
-75.542500000000004
20
79.034899999999993
30
0
40
1.7249999999999999
210
0
220
-0
230
1
0
CIRCLE
5
106
100
AcDbEntity
8
0
100
AcDbCircle
10
-83.806100000000015
20
83.551300000000012
30
0
40
0.78500000000000014
210
0
220
-0
230
1
0
LWPOLYLINE
5
107
100
AcDbEntity
8
0
100
AcDbPolyline
90
2
70
1
43
0.0
10
-89.205563319529887
20
81.332453564829009
42
1.0031626431124452
10
-92.404136680473783
20
81.237446435292995
42
1.0031626431889575
0
CIRCLE
5
108
100
AcDbEntity
8
0
100
AcDbCircle
10
-75.476100000000002
20
67.551299999999998
30
0
40
1.7249999999999999
210
0
220
-0
230
1
0
LWPOLYLINE
5
109
100
AcDbEntity
8
0
100
AcDbPolyline
90
2
70
1
43
0.0
10
-83.139316392707428
20
63.315376020360844
42
1.100130447490818
10
-84.53928360729256
20
62.620623979639291
42
1.1001304474909632
0
CIRCLE
5
110
100
AcDbEntity
8
0
100
AcDbCircle
10
-75.476100000000002
20
46.9011
30
0
40
1.7249999999999999
210
0
220
-0
230
1
0
CIRCLE
5
111
100
AcDbEntity
8
0
100
AcDbCircle
10
-6.8707000000000011
20
43.751500000000007
30
0
40
0.5
210
0
220
-0
230
1
0
CIRCLE
5
112
100
AcDbEntity
8
0
100
AcDbCircle
10
-20.301500000000004
20
42.276300000000006
30
0
40
1.7249999999999999
210
0
220
-0
230
1
0
CIRCLE
5
113
100
AcDbEntity
8
0
100
AcDbCircle
10
-24.828499999999998
20
41.948099999999997
30
0
40
0.5
210
0
220
-0
230
1
0
LWPOLYLINE
5
114
100
AcDbEntity
8
0
100
AcDbPolyline
90
2
70
1
43
0.0
10
-11.322308846577569
20
26.717634166270731
42
1.8482296379093488
10
-12.636291153422262
20
26.693765833728825
42
1.8482296379082959
0
CIRCLE
5
115
100
AcDbEntity
8
0
100
AcDbCircle
10
-20.2057
20
31.3309
30
0
40
0.5
210
0
220
-0
230
1
0
CIRCLE
5
116
100
AcDbEntity
8
0
100
AcDbCircle
10
-34.632899999999999
20
41.948099999999997
30
0
40
0.5
210
0
220
-0
230
1
0
CIRCLE
5
117
100
AcDbEntity
8
0
100
AcDbCircle
10
-45.259700000000002
20
30.7499
30
0
40
0.34999999999999998
210
0
220
-0
230
1
0
CIRCLE
5
118
100
AcDbEntity
8
0
100
AcDbCircle
10
-20.301500000000004
20
21.626100000000005
30
0
40
1.7249999999999999
210
0
220
-0
230
1
0
LWPOLYLINE
5
119
100
AcDbEntity
8
0
100
AcDbPolyline
90
2
70
1
43
0.0
10
-3.4805633195281964
20
5.1324535647659939
42
1.0031626431509792
10
-6.6791366804717747
20
5.0374464352330364
42
1.00316264315038
0
CIRCLE
5
120
100
AcDbEntity
8
0
100
AcDbCircle
10
-11.971500000000002
20
5.626100000000001
30
0
40
0.78500000000000014
210
0
220
-0
230
1
0
CIRCLE
5
121
100
AcDbEntity
8
0
100
AcDbCircle
10
-20.3171
20
11.1351
30
0
40
1.7249999999999999
210
0
220
-0
230
1
0
CIRCLE
5
122
100
AcDbEntity
8
0
100
AcDbCircle
10
-65.824100000000001
20
41.490900000000003
30
0
40
0.5
210
0
220
-0
230
1
0
CIRCLE
5
123
100
AcDbEntity
8
0
100
AcDbCircle
10
-65.824100000000001
20
36.360100000000003
30
0
40
0.5
210
0
220
-0
230
1
0
CIRCLE
5
124
100
AcDbEntity
8
0
100
AcDbCircle
10
-69.710300000000004
20
36.360100000000003
30
0
40
0.5
210
0
220
-0
230
1
0
CIRCLE
5
125
100
AcDbEntity
8
0
100
AcDbCircle
10
-50.339700000000001
20
30.7499
30
0
40
0.34999999999999998
210
0
220
-0
230
1
0
CIRCLE
5
126
100
AcDbEntity
8
0
100
AcDbCircle
10
-69.710300000000004
20
32.677100000000003
30
0
40
0.5
210
0
220
-0
230
1
0
CIRCLE
5
127
100
AcDbEntity
8
0
100
AcDbCircle
10
-83.451700000000017
20
44.081699999999998
30
0
40
0.5
210
0
220
-0
230
1
0
LWPOLYLINE
5
128
100
AcDbEntity
8
0
100
AcDbPolyline
90
2
70
1
43
0.0
10
-73.838893128012913
20
26.736042742434979
42
1.2895753205547589
10
-77.17970687198698
20
26.675357257565011
42
1.2895753205547411
0
CIRCLE
5
129
100
AcDbEntity
8
0
100
AcDbCircle
10
-90.909700000000001
20
26.369900000000005
30
0
40
0.5
210
0
220
-0
230
1
0
CIRCLE
5
130
100
AcDbEntity
8
0
100
AcDbCircle
10
-75.501499999999993
20
5.626100000000001
30
0
40
1.7249999999999999
210
0
220
-0
230
1
0
CIRCLE
5
131
100
AcDbEntity
8
0
100
AcDbCircle
10
-90.804699999999997
20
7.6199000000000003
30
0
40
1.6000000000000003
210
0
220
-0
230
1
0
LWPOLYLINE
5
132
100
AcDbEntity
8
0
100
AcDbPolyline
90
64
70
1
43
0.0
10
-11.874200000000002
20
89.101932000000005
10
-84.010200000000012
20
89.101932000000005
10
-85.045500000000004
20
90.159900000000007
10
-93.884699999999995
20
90.159900000000007
10
-94.169330000000002
20
90.139543000000003
10
-94.448165000000003
20
90.078885999999997
10
-94.715530000000001
20
89.979163999999997
10
-94.965981999999997
20
89.842406999999994
10
-95.194421000000006
20
89.671398999999994
10
-95.396198999999996
20
89.469621000000004
10
-95.567206999999996
20
89.241182000000009
10
-95.703963999999999
20
88.990729999999999
10
-95.803685999999999
20
88.723365000000015
10
-95.864343000000005
20
88.44453
10
-95.884699999999995
20
88.159899999999993
10
-95.884699999999995
20
79.320700000000002
10
-95.256878999999998
20
78.28540000000001
10
-95.256878999999998
20
11.864400000000002
10
-95.884699999999995
20
10.8291
10
-95.884699999999995
20
1.9899
10
-95.864343000000005
20
1.7052700000000001
10
-95.803685999999999
20
1.4264350000000001
10
-95.703963999999999
20
1.15907
10
-95.567206999999996
20
0.90861800000000004
10
-95.396198999999996
20
0.68017900000000009
10
-95.194421000000006
20
0.47840100000000002
10
-94.965981999999997
20
0.30739300000000003
10
-94.715530000000001
20
0.17063600000000001
10
-94.448165000000003
20
0.070914000000000005
10
-94.169330000000002
20
0.010257
10
-93.884699999999995
20
-0.010100000000000001
10
-85.045500000000004
20
-0.010100000000000001
10
-84.010200000000012
20
1.2857280000000002
10
-11.874200000000004
20
1.2857280000000002
10
-10.838900000000001
20
-0.010100000000000109
10
-1.9996999999999998
20
-0.010100000000000001
10
-1.7150700000000003
20
0.010257
10
-1.4362349999999999
20
0.070914000000000005
10
-1.1688700000000001
20
0.17063600000000001
10
-0.91841799999999996
20
0.30739300000000003
10
-0.68997900000000001
20
0.47840100000000002
10
-0.48820100000000005
20
0.68017900000000009
10
-0.317193
20
0.90861800000000004
10
-0.18043600000000004
20
1.15907
10
-0.080713999999999994
20
1.4264350000000001
10
-0.020056999999999998
20
1.7052700000000001
10
0.00030000000000000079
20
1.9899
10
0.00029999999999999997
20
10.8291
10
-0.66334500000000007
20
11.8644
10
-0.66334500000000007
20
78.28540000000001
10
0.00030000000000002247
20
79.320700000000002
10
0.00029999999999999997
20
88.159899999999993
10
-0.020043999999999999
20
88.444534000000004
10
-0.080692
20
88.723376000000002
10
-0.18040800000000001
20
88.990746999999999
10
-0.317162
20
89.241204999999994
10
-0.48816999999999999
20
89.469649000000004
10
-0.68995099999999998
20
89.671430000000001
10
-0.91839500000000007
20
89.842438000000001
10
-1.1688529999999999
20
89.979191999999998
10
-1.4362240000000002
20
90.078907999999998
10
-1.7150660000000002
20
90.139556000000013
10
-1.9997
20
90.159900000000007
10
-10.838900000000001
20
90.159900000000007
0
LWPOLYLINE
5
133
100
AcDbEntity
8
0
100
AcDbPolyline
90
2
70
1
43
0.0
10
-17.3349910819474
20
88.500424149183772
10
-17.3349910819474
20
85.487256940634623
0
LINE
5
134
100
AcDbEntity
8
0
100
AcDbLine
10
-18.579560146348136
20
88.500424149183772
30
0
11
-17.3349910819474
21
88.500424149183772
31
0
0
LINE
5
135
100
AcDbEntity
8
0
100
AcDbLine
10
-16.024918382578207
20
88.500424149183772
30
0
11
-17.3349910819474
21
88.500424149183772
31
0
0
LINE
5
136
100
AcDbEntity
8
0
100
AcDbLine
10
-14.714845683209013
20
88.500424149183772
30
0
11
-14.714845683209013
21
85.487256940634623
31
0
0
LINE
5
137
100
AcDbEntity
8
0
100
AcDbLine
10
-14.714845683209013
20
85.487256940634623
30
0
11
-14.714845683209013
21
86.993840544909204
31
0
0
LINE
5
138
100
AcDbEntity
8
0
100
AcDbLine
10
-13.000000193715096
20
86.000001281499863
30
0
11
-14.714845683209013
21
86.993840544909204
31
0
0
SPLINE
5
139
100
AcDbEntity
8
0
100
AcDbSpline
70
4
71
5
72
26
73
20
74
0
42
0.000000001
43
0.0000000001
44
0.0000000001
40
0
40
0
40
0
40
0
40
0
40
0
40
0.066666666666666666
40
0.13333333333333333
40
0.20000000000000001
40
0.26666666666666666
40
0.33333333333333331
40
0.39999999999999997
40
0.46666666666666662
40
0.53333333333333333
40
0.59999999999999998
40
0.66666666666666663
40
0.73333333333333328
40
0.79999999999999993
40
0.86666666666666659
40
0.93333333333333324
40
1
40
1
40
1
40
1
40
1
40
1
41
1
41
1
41
1
41
1
41
1
41
1
41
1
41
1
41
1
41
1
41
1
41
1
41
1
41
1
41
1
41
1
41
1
41
1
41
1
41
1
10
-14.714845683209013
20
88.500424149183772
30
0
10
-14.648593346336686
20
88.508696662914602
30
0
10
-14.519375931120752
20
88.521131872356875
30
0
10
-14.335411525402435
20
88.527455452248404
30
0
10
-14.109992936871086
20
88.511047230038713
30
0
10
-13.862527585793087
20
88.4487025009566
30
0
10
-13.651455654952368
20
88.345094565109804
30
0
10
-13.479740443289909
20
88.202983152161096
30
0
10
-13.351137967953123
20
88.028495082209091
30
0
10
-13.270037441209519
20
87.832862831738765
30
0
10
-13.241094792763645
20
87.630557454851072
30
0
10
-13.268691735267348
20
87.4368974339461
30
0
10
-13.356367044060548
20
87.266074525358505
30
0
10
-13.50584682931639
20
87.128611949661291
30
0
10
-13.716631554156976
20
87.03007836554427
30
0
10
-13.987215614358554
20
86.972940938457768
30
0
10
-14.250065264702007
20
86.960678698768589
30
0
10
-14.472636453036509
20
86.970080043603502
30
0
10
-14.632238960647342
20
86.984552808476892
30
0
10
-14.714845683209013
20
86.993840544909204
30
0
0
ENDSEC
0
SECTION
2
OBJECTS
0
DICTIONARY
5
C
100
AcDbDictionary
3
ACAD_GROUP
350
D
3
ACAD_MLINESTYLE
350
17
0
DICTIONARY
5
D
100
AcDbDictionary
0
DICTIONARY
5
1A
330
C
100
AcDbDictionary
0
DICTIONARY
5
17
100
AcDbDictionary
0
ENDSEC
0
EOF
