0
SECTION
2
HEADER
9
$INSUNITS
70
4
9
$ACADVER
1
AC1014
9
$HANDSEED
5
FFFF
0
ENDSEC
0
SECTION
2
TABLES
0
TABLE
2
VPORT
5
8
100
AcDbSymbolTable
0
ENDTAB
0
TABLE
2
LTYPE
5
5
100
AcDbSymbolTable
0
LTYPE
5
14
100
AcDbSymbolTableRecord
100
AcDbLinetypeTableRecord
2
BYBLOCK
70
0
0
LTYPE
5
15
100
AcDbSymbolTableRecord
100
AcDbLinetypeTableRecord
2
BYLAYER
70
0
0
ENDTAB
0
TABLE
2
LAYER
5
2
100
AcDbSymbolTable
70
2
0
LAYER
5
50
100
AcDbSymbolTableRecord
100
AcDbLayerTableRecord
2
0
70
0
6
CONTINUOUS
0
ENDTAB
0
TABLE
2
STYLE
5
3
100
AcDbSymbolTable
70
1
0
STYLE
5
11
100
AcDbSymbolTableRecord
100
AcDbTextStyleTableRecord
2
STANDARD
70
0
0
ENDTAB
0
TABLE
2
VIEW
5
6
100
AcDbSymbolTable
70
0
0
ENDTAB
0
TABLE
2
UCS
5
7
100
AcDbSymbolTable
70
0
0
ENDTAB
0
TABLE
2
APPID
5
9
100
AcDbSymbolTable
70
2
0
APPID
5
12
100
AcDbSymbolTableRecord
100
AcDbRegAppTableRecord
2
ACAD
70
0
0
ENDTAB
0
TABLE
2
DIMSTYLE
5
A
100
AcDbSymbolTable
70
1
0
ENDTAB
0
TABLE
2
BLOCK_RECORD
5
1
100
AcDbSymbolTable
70
1
0
BLOCK_RECORD
5
1F
100
AcDbSymbolTableRecord
100
AcDbBlockTableRecord
2
*MODEL_SPACE
0
BLOCK_RECORD
5
1B
100
AcDbSymbolTableRecord
100
AcDbBlockTableRecord
2
*PAPER_SPACE
0
ENDTAB
0
ENDSEC
0
SECTION
2
BLOCKS
0
BLOCK
5
20
100
AcDbEntity
100
AcDbBlockBegin
2
*MODEL_SPACE
0
ENDBLK
5
21
100
AcDbEntity
100
AcDbBlockEnd
0
BLOCK
5
1C
100
AcDbEntity
100
AcDbBlockBegin
2
*PAPER_SPACE
0
ENDBLK
5
1D
100
AcDbEntity
100
AcDbBlockEnd
0
ENDSEC
0
SECTION
2
ENTITIES
0
LWPOLYLINE
5
100
100
AcDbEntity
8
0
100
AcDbPolyline
90
4
70
1
43
0.0
10
-176.2744697390479
20
-6.8886592599966159
42
0.99999999999999989
10
-176.27446973904782
20
-3.888659259996615
10
-189.6344697390478
20
-3.888659259996615
42
0.99999999999999989
10
-189.6344697390478
20
-6.8886592599966159
0
LWPOLYLINE
5
101
100
AcDbEntity
8
0
100
AcDbPolyline
90
4
70
1
43
0.0
10
-148.58946973904713
20
-28.713659259995659
10
-148.58946973904713
20
-42.073659259995665
42
-0.99999999999999989
10
-151.58946973904713
20
-42.073659259995665
10
-151.58946973904713
20
-28.713659259995659
42
-0.99999999999999989
0
LWPOLYLINE
5
102
100
AcDbEntity
8
0
100
AcDbPolyline
90
4
70
1
43
0.0
10
-131.64446973904782
20
-6.8886592599949079
42
0.99999999999999989
10
-131.64446973904779
20
-3.8886592599949079
10
-145.00446973904783
20
-3.8886592599949079
42
0.99999999999999989
10
-145.00446973904783
20
-6.8886592599949079
0
LWPOLYLINE
5
103
100
AcDbEntity
8
0
100
AcDbPolyline
90
4
70
1
43
0.0
10
-176.27446973904802
20
-27.988659259996567
10
-189.63446973904797
20
-27.988659259996567
42
-0.99999999999999989
10
-189.63446973904797
20
-24.988659259996489
10
-176.27446973904802
20
-24.988659259996489
42
-0.99999999999999989
0
LWPOLYLINE
5
104
100
AcDbEntity
8
0
100
AcDbPolyline
90
4
70
1
43
0.0
10
-172.68946973904704
20
-42.073659259995644
10
-172.68946973904704
20
-28.713659259995651
42
-0.99999999999999989
10
-169.68946973904707
20
-28.713659259995651
10
-169.68946973904707
20
-42.073659259995644
42
-0.99999999999999989
0
LWPOLYLINE
5
105
100
AcDbEntity
8
0
100
AcDbPolyline
90
4
70
1
43
0.0
10
-131.64446973904799
20
-27.98865925999511
42
0.99999999999999989
10
-131.64446973904799
20
-24.988659215291626
10
-145.00446973904803
20
-24.988659215291626
42
0.99999999999999989
10
-145.00446973904803
20
-27.98865925999511
0
LWPOLYLINE
5
106
100
AcDbEntity
8
0
100
AcDbPolyline
90
44
70
1
43
0.0
10
-148.69446973904803
20
-9.9386592599957826
10
-116.69446973904805
20
-9.9386592599957826
10
-116.69446973904805
20
-2.4386592599957813
10
-112.69446973904805
20
-2.438659259995779
10
-112.69446973904803
20
27.146340740004238
42
0.41421356237308915
10
-114.69446973904803
20
29.146340740004234
10
-147.13946973904802
20
29.146340740004231
10
-147.13946973904802
20
25.14382330820121
10
-148.06946973904803
20
25.146340740004234
10
-154.63946973904802
20
25.146340740004234
10
-154.63946973904802
20
-6.8522670180763612
10
-166.63946973904802
20
-6.8522670180763612
10
-166.63946973904802
20
25.146340740004234
10
-174.13946973904802
20
25.146340740004234
10
-174.13946973904802
20
29.146340740004231
10
-206.58446973904802
20
29.146340740004248
42
0.41421356237308204
10
-208.58446973904805
20
27.146340740004238
10
-208.58446973904805
20
-2.4386592599957746
10
-204.58195230724499
20
-2.4386592599957737
10
-204.58446973904802
20
-3.3686592599957663
10
-204.58446973904802
20
-9.9386592599957737
10
-172.58446973904802
20
-9.9386592599957737
10
-172.58446973904802
20
-21.938659259995777
10
-204.58446973904802
20
-21.938659259995777
10
-204.58446973904802
20
-29.438659259995777
10
-208.58446973904805
20
-29.438659259995777
10
-208.58446973904805
20
-59.023659259995789
42
0.41421356237308721
10
-206.58446973904802
20
-61.023659259995782
10
-174.13946973904802
20
-61.023659259995782
10
-174.13946973904802
20
-57.021141828192761
10
-173.20946973904802
20
-57.023659259995789
10
-166.63946973904802
20
-57.023659259995789
10
-166.63946973904802
20
-25.023659259995785
10
-154.63946973904802
20
-25.023659259995785
10
-154.63946973904802
20
-57.023659259995789
10
-147.13946973904802
20
-57.023659259995789
10
-147.13946973904802
20
-61.023659259995782
10
-114.69446973904802
20
-61.023659259995775
42
0.41421356237309115
10
-112.69446973904803
20
-59.023659259995767
10
-112.69446973904805
20
-29.438659259995781
10
-116.69698717085106
20
-29.438659259995781
10
-116.69446973904805
20
-28.508659259995788
10
-116.69446973904805
20
-21.938659259995788
10
-148.69446973904803
20
-21.938659259995781
0
LWPOLYLINE
5
107
100
AcDbEntity
8
0
100
AcDbPolyline
90
4
70
1
43
0.0
10
-169.68946973904909
20
10.197732981923654
10
-169.68946973904909
20
-3.1622670180763093
42
-0.99999999999999989
10
-172.68946973904906
20
-3.1622670180763315
10
-172.68946973904906
20
10.197732981923654
42
-0.99999999999999989
0
LWPOLYLINE
5
108
100
AcDbEntity
8
0
100
AcDbPolyline
90
4
70
1
43
0.0
10
-151.58946973904906
20
-3.1622670180763315
10
-151.58946973904906
20
10.197732981923654
42
-0.99999999999999989
10
-148.58946973904909
20
10.197732981923654
10
-148.58946973904909
20
-3.1622670180763093
42
-0.99999999999999989
0
CIRCLE
5
109
100
AcDbEntity
8
0
100
AcDbCircle
10
153.59000000000168
20
-11.949999999999916
30
0
40
1.0899999999999999
210
0
220
0
230
-1
0
CIRCLE
5
110
100
AcDbEntity
8
0
100
AcDbCircle
10
166.45000000000164
20
-11.949999999999864
30
0
40
1.0900000000000176
210
0
220
0
230
-1
0
CIRCLE
5
111
100
AcDbEntity
8
0
100
AcDbCircle
10
203.50446973904806
20
24.06634074000424
30
0
40
1.5899999999999892
210
0
220
0
230
-1
0
CIRCLE
5
112
100
AcDbEntity
8
0
100
AcDbCircle
10
117.77446973904802
20
21.52634074000423
30
0
40
1.5899999999999892
210
0
220
0
230
-1
0
CIRCLE
5
113
100
AcDbEntity
8
0
100
AcDbCircle
10
117.77446973904802
20
-52.133659259995788
30
0
40
1.5899999999999892
210
0
220
0
230
-1
0
CIRCLE
5
114
100
AcDbEntity
8
0
100
AcDbCircle
10
203.50446973904806
20
-55.94365925999579
30
0
40
1.5899999999999892
210
0
220
0
230
-1
0
CIRCLE
5
115
100
AcDbEntity
8
0
100
AcDbCircle
10
-153.59000000000168
20
-11.949999999999916
30
0
40
1.0899999999999999
210
0
220
0
230
1
0
CIRCLE
5
116
100
AcDbEntity
8
0
100
AcDbCircle
10
-166.45000000000164
20
-11.949999999999864
30
0
40
1.0900000000000174
210
0
220
0
230
1
0
LWPOLYLINE
5
117
100
AcDbEntity
8
0
100
AcDbPolyline
90
4
70
1
43
0.0
10
-176.2744697390479
20
-6.8886592599966159
42
0.99999999999999989
10
-176.27446973904782
20
-3.8886592599965795
10
-189.6344697390478
20
-3.888659259996615
42
0.99999999999999989
10
-189.6344697390478
20
-6.8886592599966159
0
LWPOLYLINE
5
118
100
AcDbEntity
8
0
100
AcDbPolyline
90
4
70
1
43
0.0
10
-148.58946973904713
20
-28.713659259995659
10
-148.58946973904713
20
-42.073659259995679
42
-0.99999999999999989
10
-151.58946973904713
20
-42.073659259995665
10
-151.58946973904713
20
-28.713659259995641
42
-0.99999999999999989
0
LWPOLYLINE
5
119
100
AcDbEntity
8
0
100
AcDbPolyline
90
4
70
1
43
0.0
10
-131.64446973904782
20
-6.8886592599949079
42
0.99999999999999989
10
-131.64446973904779
20
-3.8886592599949079
10
-145.00446973904783
20
-3.8886592599949079
42
0.99999999999999989
10
-145.00446973904783
20
-6.8886592599949079
0
LWPOLYLINE
5
120
100
AcDbEntity
8
0
100
AcDbPolyline
90
4
70
1
43
0.0
10
-176.27446973904802
20
-27.988659259996567
10
-189.63446973904792
20
-27.988659259996567
42
-0.99999999999999989
10
-189.63446973904797
20
-24.988659259996489
10
-176.27446973904802
20
-24.988659259996489
42
-0.99999999999999989
0
LWPOLYLINE
5
121
100
AcDbEntity
8
0
100
AcDbPolyline
90
4
70
1
43
0.0
10
-172.68946973904704
20
-42.073659259995644
10
-172.68946973904704
20
-28.713659259995651
42
-0.99999999999999989
10
-169.68946973904707
20
-28.713659259995651
10
-169.68946973904707
20
-42.073659259995644
42
-0.99999999999999989
0
LWPOLYLINE
5
122
100
AcDbEntity
8
0
100
AcDbPolyline
90
4
70
1
43
0.0
10
-131.64446973904799
20
-27.98865925999511
42
0.99999999999999989
10
-131.64446973904799
20
-24.988659215291626
10
-145.00446973904803
20
-24.988659215291626
42
0.99999999999999989
10
-145.00446973904803
20
-27.98865925999511
0
CIRCLE
5
123
100
AcDbEntity
8
0
100
AcDbCircle
10
-203.50446973904806
20
24.06634074000424
30
0
40
1.5899999999999892
210
0
220
0
230
1
0
CIRCLE
5
124
100
AcDbEntity
8
0
100
AcDbCircle
10
-117.77446973904802
20
21.52634074000423
30
0
40
1.5899999999999892
210
0
220
0
230
1
0
CIRCLE
5
125
100
AcDbEntity
8
0
100
AcDbCircle
10
-117.77446973904802
20
-52.133659259995788
30
0
40
1.5899999999999892
210
0
220
0
230
1
0
CIRCLE
5
126
100
AcDbEntity
8
0
100
AcDbCircle
10
-203.50446973904806
20
-55.94365925999579
30
0
40
1.5899999999999892
210
0
220
0
230
1
0
LWPOLYLINE
5
127
100
AcDbEntity
8
0
100
AcDbPolyline
90
44
70
1
43
0.0
10
-148.69446973904803
20
-9.9386592599957826
10
-116.69446973904805
20
-9.9386592599957826
10
-116.69446973904805
20
-2.4386592599957813
10
-112.69446973904805
20
-2.438659259995779
10
-112.69446973904803
20
27.146340740004238
42
0.41421356237308915
10
-114.69446973904803
20
29.146340740004245
10
-147.13946973904802
20
29.146340740004231
10
-147.13946973904802
20
25.14382330820121
10
-148.06946973904803
20
25.146340740004234
10
-154.63946973904802
20
25.146340740004234
10
-154.63946973904802
20
-6.8522670180763612
10
-166.63946973904802
20
-6.8522670180763612
10
-166.63946973904802
20
25.146340740004234
10
-174.13946973904802
20
25.146340740004234
10
-174.13946973904802
20
29.146340740004231
10
-206.58446973904802
20
29.146340740004248
42
0.41421356237308915
10
-208.58446973904807
20
27.146340740004238
10
-208.58446973904805
20
-2.4386592599957746
10
-204.58195230724499
20
-2.4386592599957737
10
-204.58446973904802
20
-3.3686592599957663
10
-204.58446973904802
20
-9.9386592599957737
10
-172.58446973904802
20
-9.9386592599957737
10
-172.58446973904802
20
-21.938659259995777
10
-204.58446973904802
20
-21.938659259995777
10
-204.58446973904802
20
-29.438659259995777
10
-208.58446973904805
20
-29.438659259995777
10
-208.58446973904805
20
-59.023659259995789
42
0.41421356237310025
10
-206.58446973904802
20
-61.023659259995782
10
-174.13946973904802
20
-61.023659259995782
10
-174.13946973904802
20
-57.021141828192761
10
-173.20946973904802
20
-57.023659259995789
10
-166.63946973904802
20
-57.023659259995789
10
-166.63946973904802
20
-25.023659259995785
10
-154.63946973904802
20
-25.023659259995785
10
-154.63946973904802
20
-57.023659259995789
10
-147.13946973904802
20
-57.023659259995789
10
-147.13946973904802
20
-61.023659259995782
10
-114.69446973904802
20
-61.023659259995775
42
0.41421356237309503
10
-112.69446973904803
20
-59.023659259995767
10
-112.69446973904805
20
-29.438659259995781
10
-116.69698717085106
20
-29.438659259995781
10
-116.69446973904805
20
-28.508659259995788
10
-116.69446973904805
20
-21.938659259995788
10
-148.69446973904803
20
-21.938659259995781
0
LWPOLYLINE
5
128
100
AcDbEntity
8
0
100
AcDbPolyline
90
4
70
1
43
0.0
10
-169.68946973904909
20
10.197732981923654
10
-169.68946973904909
20
-3.1622670180763093
42
-0.99999999999999989
10
-172.68946973904906
20
-3.1622670180763315
10
-172.68946973904906
20
10.197732981923654
42
-0.99999999999999989
0
LWPOLYLINE
5
129
100
AcDbEntity
8
0
100
AcDbPolyline
90
4
70
1
43
0.0
10
-151.58946973904906
20
-3.1622670180763315
10
-151.58946973904906
20
10.197732981923654
42
-0.99999999999999989
10
-148.58946973904909
20
10.197732981923654
10
-148.58946973904909
20
-3.1622670180763093
42
-0.99999999999999989
0
ENDSEC
0
SECTION
2
OBJECTS
0
DICTIONARY
5
C
100
AcDbDictionary
3
ACAD_GROUP
350
D
3
ACAD_MLINESTYLE
350
17
0
DICTIONARY
5
D
100
AcDbDictionary
0
DICTIONARY
5
1A
330
C
100
AcDbDictionary
0
DICTIONARY
5
17
100
AcDbDictionary
0
ENDSEC
0
EOF
