0
SECTION
2
HEADER
9
$INSUNITS
70
4
9
$ACADVER
1
AC1014
9
$HANDSEED
5
FFFF
0
ENDSEC
0
SECTION
2
TABLES
0
TABLE
2
VPORT
5
8
100
AcDbSymbolTable
0
ENDTAB
0
TABLE
2
LTYPE
5
5
100
AcDbSymbolTable
0
LTYPE
5
14
100
AcDbSymbolTableRecord
100
AcDbLinetypeTableRecord
2
BYBLOCK
70
0
0
LTYPE
5
15
100
AcDbSymbolTableRecord
100
AcDbLinetypeTableRecord
2
BYLAYER
70
0
0
ENDTAB
0
TABLE
2
LAYER
5
2
100
AcDbSymbolTable
70
2
0
LAYER
5
50
100
AcDbSymbolTableRecord
100
AcDbLayerTableRecord
2
0
70
0
6
CONTINUOUS
0
ENDTAB
0
TABLE
2
STYLE
5
3
100
AcDbSymbolTable
70
1
0
STYLE
5
11
100
AcDbSymbolTableRecord
100
AcDbTextStyleTableRecord
2
STANDARD
70
0
0
ENDTAB
0
TABLE
2
VIEW
5
6
100
AcDbSymbolTable
70
0
0
ENDTAB
0
TABLE
2
UCS
5
7
100
AcDbSymbolTable
70
0
0
ENDTAB
0
TABLE
2
APPID
5
9
100
AcDbSymbolTable
70
2
0
APPID
5
12
100
AcDbSymbolTableRecord
100
AcDbRegAppTableRecord
2
ACAD
70
0
0
ENDTAB
0
TABLE
2
DIMSTYLE
5
A
100
AcDbSymbolTable
70
1
0
ENDTAB
0
TABLE
2
BLOCK_RECORD
5
1
100
AcDbSymbolTable
70
1
0
BLOCK_RECORD
5
1F
100
AcDbSymbolTableRecord
100
AcDbBlockTableRecord
2
*MODEL_SPACE
0
BLOCK_RECORD
5
1B
100
AcDbSymbolTableRecord
100
AcDbBlockTableRecord
2
*PAPER_SPACE
0
ENDTAB
0
ENDSEC
0
SECTION
2
BLOCKS
0
BLOCK
5
20
100
AcDbEntity
100
AcDbBlockBegin
2
*MODEL_SPACE
0
ENDBLK
5
21
100
AcDbEntity
100
AcDbBlockEnd
0
BLOCK
5
1C
100
AcDbEntity
100
AcDbBlockBegin
2
*PAPER_SPACE
0
ENDBLK
5
1D
100
AcDbEntity
100
AcDbBlockEnd
0
ENDSEC
0
SECTION
2
ENTITIES
0
LWPOLYLINE
5
100
100
AcDbEntity
8
0
100
AcDbPolyline
90
52
70
1
43
0.0
10
-54.670000000000002
20
-94.986003999999994
10
-43.875
20
-94.986003999999994
10
-42.595002999999998
20
-95.885000000000019
10
-2.0000000000000018
20
-95.885000000000019
10
-1.7153700000000003
20
-95.864643000000015
10
-1.4365349999999999
20
-95.803986000000009
10
-1.16917
20
-95.704264000000009
10
-0.91871800000000003
20
-95.567507000000006
10
-0.69027900000000009
20
-95.396499000000006
10
-0.48850100000000007
20
-95.194721000000001
10
-0.31749300000000003
20
-94.966282000000021
10
-0.18073600000000001
20
-94.715830000000011
10
-0.081014000000000003
20
-94.448464999999999
10
-0.020356999999999997
20
-94.169630000000012
10
0
20
-93.885000000000005
10
0
20
-1.9999999999999929
10
-0.020357
20
-1.7153700000000003
10
-0.081014000000000003
20
-1.4365349999999999
10
-0.18073600000000001
20
-1.16917
10
-0.31749300000000003
20
-0.91871800000000003
10
-0.48850100000000007
20
-0.69027900000000009
10
-0.69027900000000009
20
-0.48850100000000007
10
-0.91871800000000003
20
-0.31749300000000003
10
-1.16917
20
-0.18073600000000001
10
-1.4365349999999999
20
-0.081014000000000003
10
-1.7153700000000003
20
-0.020356999999999997
10
-2
20
0
10
-88.170000000000002
20
0
10
-88.454630000000009
20
-0.020357
10
-88.733464999999995
20
-0.081014000000000003
10
-89.000830000000008
20
-0.18073600000000001
10
-89.251282000000018
20
-0.31749300000000003
10
-89.479720999999998
20
-0.48850100000000007
10
-89.681499000000002
20
-0.69027900000000009
10
-89.852507000000003
20
-0.91871800000000003
10
-89.989264000000006
20
-1.16917
10
-90.088986000000006
20
-1.4365349999999999
10
-90.149643000000012
20
-1.7153700000000003
10
-90.170000000000016
20
-2
10
-90.170000000000016
20
-93.885000000000005
10
-90.149643000000012
20
-94.169630000000012
10
-90.088986000000006
20
-94.448464999999999
10
-89.989264000000006
20
-94.715830000000011
10
-89.852507000000003
20
-94.966282000000021
10
-89.681499000000002
20
-95.194721000000001
10
-89.479720999999998
20
-95.396499000000006
10
-89.251282000000018
20
-95.567507000000006
10
-89.000830000000008
20
-95.704264000000009
10
-88.733464999999995
20
-95.803986000000009
10
-88.454630000000009
20
-95.864643000000015
10
-88.170000000000002
20
-95.885000000000019
10
-55.940000000000005
20
-95.875004000000018
0
LWPOLYLINE
5
101
100
AcDbEntity
8
0
100
AcDbPolyline
90
20
70
1
43
0.0
10
-53.245608000000004
20
-89.392425000000003
10
-53.285435000000007
20
-89.495230000000006
10
-53.359710000000007
20
-89.576705000000004
10
-53.458401000000002
20
-89.625848000000005
10
-53.56818100000001
20
-89.636020000000002
10
-53.674222
20
-89.605849000000006
10
-53.762203
20
-89.539409000000006
10
-53.820242
20
-89.445672000000002
10
-53.840500000000006
20
-89.337299999999999
10
-53.840500000000006
20
-88.237300000000005
10
-53.835392000000006
20
-88.182175000000015
10
-53.795565000000003
20
-88.079370000000011
10
-53.72129000000001
20
-87.997895000000014
10
-53.622599000000008
20
-87.948751999999999
10
-53.512819
20
-87.938580000000002
10
-53.40677800000001
20
-87.968750999999997
10
-53.318797000000011
20
-88.035191000000012
10
-53.26075800000001
20
-88.128928000000002
10
-53.240499999999997
20
-88.237300000000005
10
-53.240499999999997
20
-89.337299999999999
0
LWPOLYLINE
5
102
100
AcDbEntity
8
0
100
AcDbPolyline
90
20
70
1
43
0.0
10
-53.245608000000004
20
-93.292424999999994
10
-53.285435000000007
20
-93.395229999999998
10
-53.359710000000007
20
-93.476704999999995
10
-53.458401000000002
20
-93.525848000000011
10
-53.56818100000001
20
-93.536020000000008
10
-53.674222
20
-93.505848999999998
10
-53.762203
20
-93.439408999999998
10
-53.820242
20
-93.345672000000008
10
-53.840500000000006
20
-93.237300000000005
10
-53.840500000000006
20
-92.63730000000001
10
-53.835392000000006
20
-92.582175000000007
10
-53.795565000000003
20
-92.479370000000003
10
-53.72129000000001
20
-92.397895000000005
10
-53.622599000000008
20
-92.348752000000019
10
-53.512819
20
-92.338579999999993
10
-53.40677800000001
20
-92.368751000000003
10
-53.318797000000011
20
-92.435191000000003
10
-53.26075800000001
20
-92.528927999999993
10
-53.240499999999997
20
-92.63730000000001
10
-53.240499999999997
20
-93.237300000000005
0
LWPOLYLINE
5
103
100
AcDbEntity
8
0
100
AcDbPolyline
90
20
70
1
43
0.0
10
-44.605607999999997
20
-89.392425000000003
10
-44.645435000000006
20
-89.495230000000006
10
-44.719709999999999
20
-89.576705000000004
10
-44.818401000000001
20
-89.625848000000005
10
-44.928181000000002
20
-89.636020000000002
10
-45.034222
20
-89.605849000000006
10
-45.122202999999999
20
-89.539409000000006
10
-45.180242
20
-89.445672000000002
10
-45.200500000000005
20
-89.337299999999999
10
-45.200500000000005
20
-88.237300000000005
10
-45.195391999999998
20
-88.182175000000015
10
-45.15556500000001
20
-88.079370000000011
10
-45.081290000000003
20
-87.997895000000014
10
-44.982599
20
-87.948751999999999
10
-44.872819
20
-87.938580000000002
10
-44.766778000000002
20
-87.968750999999997
10
-44.678797000000003
20
-88.035191000000012
10
-44.620758000000002
20
-88.128928000000002
10
-44.600499999999997
20
-88.237300000000005
10
-44.600499999999997
20
-89.337299999999999
0
LWPOLYLINE
5
104
100
AcDbEntity
8
0
100
AcDbPolyline
90
20
70
1
43
0.0
10
-44.605607999999997
20
-93.292424999999994
10
-44.645435000000006
20
-93.395229999999998
10
-44.719709999999999
20
-93.476704999999995
10
-44.818401000000001
20
-93.525848000000011
10
-44.928181000000002
20
-93.536020000000008
10
-45.034222
20
-93.505848999999998
10
-45.122202999999999
20
-93.439408999999998
10
-45.180242
20
-93.345672000000008
10
-45.200500000000005
20
-93.237300000000005
10
-45.200500000000005
20
-92.63730000000001
10
-45.195391999999998
20
-92.582175000000007
10
-45.15556500000001
20
-92.479370000000003
10
-45.081290000000003
20
-92.397895000000005
10
-44.982599
20
-92.348752000000019
10
-44.872819
20
-92.338579999999993
10
-44.766778000000002
20
-92.368751000000003
10
-44.678797000000003
20
-92.435191000000003
10
-44.620758000000002
20
-92.528927999999993
10
-44.600499999999997
20
-92.63730000000001
10
-44.600499999999997
20
-93.237300000000005
0
CIRCLE
5
105
100
AcDbEntity
8
0
100
AcDbCircle
10
-85.090000000000003
20
-5.0800000000000001
30
0
40
1.6000000000000003
210
0
220
0
230
1
0
CIRCLE
5
106
100
AcDbEntity
8
0
100
AcDbCircle
10
-63.510100000000008
20
-10.1457
30
0
40
0.59999999999999998
210
0
220
0
230
1
0
CIRCLE
5
107
100
AcDbEntity
8
0
100
AcDbCircle
10
-59.654500000000006
20
-10.1457
30
0
40
0.59999999999999998
210
0
220
0
230
1
0
CIRCLE
5
108
100
AcDbEntity
8
0
100
AcDbCircle
10
-55.961700000000008
20
-10.134100000000002
30
0
40
0.59999999999999998
210
0
220
0
230
1
0
CIRCLE
5
109
100
AcDbEntity
8
0
100
AcDbCircle
10
-52.106099999999998
20
-10.134100000000002
30
0
40
0.59999999999999998
210
0
220
0
230
1
0
CIRCLE
5
110
100
AcDbEntity
8
0
100
AcDbCircle
10
-5.0899999999999999
20
-5.0800000000000001
30
0
40
1.6000000000000003
210
0
220
0
230
1
0
CIRCLE
5
111
100
AcDbEntity
8
0
100
AcDbCircle
10
-34.048699999999997
20
-32.3977
30
0
40
0.5
210
0
220
0
230
1
0
CIRCLE
5
112
100
AcDbEntity
8
0
100
AcDbCircle
10
-34.048699999999997
20
-34.9377
30
0
40
0.5
210
0
220
0
230
1
0
CIRCLE
5
113
100
AcDbEntity
8
0
100
AcDbCircle
10
-34.048699999999997
20
-37.477699999999999
30
0
40
0.5
210
0
220
0
230
1
0
CIRCLE
5
114
100
AcDbEntity
8
0
100
AcDbCircle
10
-34.048699999999997
20
-40.017699999999998
30
0
40
0.5
210
0
220
0
230
1
0
CIRCLE
5
115
100
AcDbEntity
8
0
100
AcDbCircle
10
-34.048699999999997
20
-42.557699999999997
30
0
40
0.5
210
0
220
0
230
1
0
CIRCLE
5
116
100
AcDbEntity
8
0
100
AcDbCircle
10
-82.372
20
-63.202204000000002
30
0
40
0.59999999999999998
210
0
220
0
230
1
0
CIRCLE
5
117
100
AcDbEntity
8
0
100
AcDbCircle
10
-82.372
20
-67.057804000000004
30
0
40
0.59999999999999998
210
0
220
0
230
1
0
CIRCLE
5
118
100
AcDbEntity
8
0
100
AcDbCircle
10
-82.372
20
-70.557804000000004
30
0
40
0.59999999999999998
210
0
220
0
230
1
0
CIRCLE
5
119
100
AcDbEntity
8
0
100
AcDbCircle
10
-73.581000000000003
20
-65.869203999999996
30
0
40
0.59999999999999998
210
0
220
0
230
1
0
CIRCLE
5
120
100
AcDbEntity
8
0
100
AcDbCircle
10
-73.581000000000003
20
-69.724804000000006
30
0
40
0.59999999999999998
210
0
220
0
230
1
0
CIRCLE
5
121
100
AcDbEntity
8
0
100
AcDbCircle
10
-82.372
20
-74.413404
30
0
40
0.59999999999999998
210
0
220
0
230
1
0
CIRCLE
5
122
100
AcDbEntity
8
0
100
AcDbCircle
10
-82.372
20
-77.894300000000001
30
0
40
0.59999999999999998
210
0
220
0
230
1
0
CIRCLE
5
123
100
AcDbEntity
8
0
100
AcDbCircle
10
-82.372
20
-81.749899999999997
30
0
40
0.59999999999999998
210
0
220
0
230
1
0
CIRCLE
5
124
100
AcDbEntity
8
0
100
AcDbCircle
10
-73.581000000000003
20
-73.224804000000006
30
0
40
0.59999999999999998
210
0
220
0
230
1
0
CIRCLE
5
125
100
AcDbEntity
8
0
100
AcDbCircle
10
-73.581000000000003
20
-77.080404000000001
30
0
40
0.59999999999999998
210
0
220
0
230
1
0
CIRCLE
5
126
100
AcDbEntity
8
0
100
AcDbCircle
10
-66.509900000000002
20
-78.143100000000004
30
0
40
0.5
210
0
220
0
230
1
0
CIRCLE
5
127
100
AcDbEntity
8
0
100
AcDbCircle
10
-81.29000000000002
20
-90.805000000000007
30
0
40
1.6000000000000003
210
0
220
0
230
1
0
CIRCLE
5
128
100
AcDbEntity
8
0
100
AcDbCircle
10
-63.96990000000001
20
-78.143100000000004
30
0
40
0.5
210
0
220
0
230
1
0
CIRCLE
5
129
100
AcDbEntity
8
0
100
AcDbCircle
10
-61.429900000000011
20
-78.143100000000004
30
0
40
0.5
210
0
220
0
230
1
0
CIRCLE
5
130
100
AcDbEntity
8
0
100
AcDbCircle
10
-58.889899999999997
20
-78.143100000000004
30
0
40
0.5
210
0
220
0
230
1
0
CIRCLE
5
131
100
AcDbEntity
8
0
100
AcDbCircle
10
-56.349900000000005
20
-78.143100000000004
30
0
40
0.5
210
0
220
0
230
1
0
CIRCLE
5
132
100
AcDbEntity
8
0
100
AcDbCircle
10
-53.809900000000006
20
-78.143100000000004
30
0
40
0.5
210
0
220
0
230
1
0
CIRCLE
5
133
100
AcDbEntity
8
0
100
AcDbCircle
10
-52.110500000000002
20
-89.287300000000002
30
0
40
0.32500000000000001
210
0
220
0
230
1
0
CIRCLE
5
134
100
AcDbEntity
8
0
100
AcDbCircle
10
-46.330500000000001
20
-89.287300000000002
30
0
40
0.32500000000000001
210
0
220
0
230
1
0
CIRCLE
5
135
100
AcDbEntity
8
0
100
AcDbCircle
10
-31.861700000000003
20
-90.565300000000008
30
0
40
0.59999999999999998
210
0
220
0
230
1
0
CIRCLE
5
136
100
AcDbEntity
8
0
100
AcDbCircle
10
-28.006100000000004
20
-90.565300000000008
30
0
40
0.59999999999999998
210
0
220
0
230
1
0
CIRCLE
5
137
100
AcDbEntity
8
0
100
AcDbCircle
10
-7.6299999999999999
20
-90.805000000000007
30
0
40
1.6000000000000003
210
0
220
0
230
1
0
LWPOLYLINE
5
138
100
AcDbEntity
8
0
100
AcDbPolyline
90
2
70
1
43
0.0
10
-87.000001296401024
20
-18.000000268220901
10
-83.000001236796379
20
-18.000000268220901
0
LINE
5
139
100
AcDbEntity
8
0
100
AcDbLine
10
-87.000001296401024
20
-20.000000298023224
30
0
11
-87.000001296401024
21
-18.000000268220901
31
0
0
LINE
5
140
100
AcDbEntity
8
0
100
AcDbLine
10
-87.000001296401024
20
-16.421740021957948
30
0
11
-87.000001296401024
21
-18.000000268220901
31
0
0
LINE
5
141
100
AcDbEntity
8
0
100
AcDbLine
10
-87.000001296401024
20
-15.000000223517418
30
0
11
-83.000001236796379
21
-15.000000223517418
31
0
0
LINE
5
142
100
AcDbEntity
8
0
100
AcDbLine
10
-83.000001236796379
20
-15.000000223517418
30
0
11
-85.000001266598701
21
-15.000000223517418
31
0
0
LINE
5
143
100
AcDbEntity
8
0
100
AcDbLine
10
-85.000001266598701
20
-15.000000223517418
30
0
11
-83.000001236796379
21
-13.000000193715096
31
0
0
SPLINE
5
144
100
AcDbEntity
8
0
100
AcDbSpline
70
4
71
5
72
26
73
20
74
0
42
0.000000001
43
0.0000000001
44
0.0000000001
40
0
40
0
40
0
40
0
40
0
40
0
40
0.066666666666666666
40
0.13333333333333333
40
0.20000000000000001
40
0.26666666666666666
40
0.33333333333333331
40
0.39999999999999997
40
0.46666666666666662
40
0.53333333333333333
40
0.59999999999999998
40
0.66666666666666663
40
0.73333333333333328
40
0.79999999999999993
40
0.86666666666666659
40
0.93333333333333324
40
1
40
1
40
1
40
1
40
1
40
1
41
1
41
1
41
1
41
1
41
1
41
1
41
1
41
1
41
1
41
1
41
1
41
1
41
1
41
1
41
1
41
1
41
1
41
1
41
1
41
1
10
-87.000001296401024
20
-15.000000223517418
30
0
10
-87.017099651277547
20
-14.86272853389737
30
0
10
-87.044261047185486
20
-14.599196935913497
30
0
10
-87.063897818788348
20
-14.236934257393916
30
0
10
-87.04755725955178
20
-13.820472501469521
30
0
10
-86.95549659087348
20
-13.413254086416034
30
0
10
-86.792682788041702
20
-13.121700663930724
30
0
10
-86.563715015994148
20
-12.94616027373343
30
0
10
-86.278724164055731
20
-12.88330654143585
30
0
10
-85.956717691379382
20
-12.922978164872163
30
0
10
-85.62425510935158
20
-13.04892268813968
30
0
10
-85.310786339033697
20
-13.242316582237972
30
0
10
-85.044934607771808
20
-13.4841825839826
30
0
10
-84.850780230725803
20
-13.757789019683358
30
0
10
-84.742839094782056
20
-14.051398505708351
30
0
10
-84.727331382635214
20
-14.358022725247457
30
0
10
-84.790037068731323
20
-14.610803771415526
30
0
10
-84.878875739110399
20
-14.804006498365423
30
0
10
-84.956551213891629
20
-14.93440313474056
30
0
10
-85.000001266598701
20
-15.000000223517418
30
0
0
ENDSEC
0
SECTION
2
OBJECTS
0
DICTIONARY
5
C
100
AcDbDictionary
3
ACAD_GROUP
350
D
3
ACAD_MLINESTYLE
350
17
0
DICTIONARY
5
D
100
AcDbDictionary
0
DICTIONARY
5
1A
330
C
100
AcDbDictionary
0
DICTIONARY
5
17
100
AcDbDictionary
0
ENDSEC
0
EOF
