0
SECTION
2
HEADER
9
$INSUNITS
70
4
9
$ACADVER
1
AC1014
9
$HANDSEED
5
FFFF
0
ENDSEC
0
SECTION
2
TABLES
0
TABLE
2
VPORT
5
8
100
AcDbSymbolTable
0
ENDTAB
0
TABLE
2
LTYPE
5
5
100
AcDbSymbolTable
0
LTYPE
5
14
100
AcDbSymbolTableRecord
100
AcDbLinetypeTableRecord
2
BYBLOCK
70
0
0
LTYPE
5
15
100
AcDbSymbolTableRecord
100
AcDbLinetypeTableRecord
2
BYLAYER
70
0
0
ENDTAB
0
TABLE
2
LAYER
5
2
100
AcDbSymbolTable
70
2
0
LAYER
5
50
100
AcDbSymbolTableRecord
100
AcDbLayerTableRecord
2
0
70
0
6
CONTINUOUS
0
ENDTAB
0
TABLE
2
STYLE
5
3
100
AcDbSymbolTable
70
1
0
STYLE
5
11
100
AcDbSymbolTableRecord
100
AcDbTextStyleTableRecord
2
STANDARD
70
0
0
ENDTAB
0
TABLE
2
VIEW
5
6
100
AcDbSymbolTable
70
0
0
ENDTAB
0
TABLE
2
UCS
5
7
100
AcDbSymbolTable
70
0
0
ENDTAB
0
TABLE
2
APPID
5
9
100
AcDbSymbolTable
70
2
0
APPID
5
12
100
AcDbSymbolTableRecord
100
AcDbRegAppTableRecord
2
ACAD
70
0
0
ENDTAB
0
TABLE
2
DIMSTYLE
5
A
100
AcDbSymbolTable
70
1
0
ENDTAB
0
TABLE
2
BLOCK_RECORD
5
1
100
AcDbSymbolTable
70
1
0
BLOCK_RECORD
5
1F
100
AcDbSymbolTableRecord
100
AcDbBlockTableRecord
2
*MODEL_SPACE
0
BLOCK_RECORD
5
1B
100
AcDbSymbolTableRecord
100
AcDbBlockTableRecord
2
*PAPER_SPACE
0
ENDTAB
0
ENDSEC
0
SECTION
2
BLOCKS
0
BLOCK
5
20
100
AcDbEntity
100
AcDbBlockBegin
2
*MODEL_SPACE
0
ENDBLK
5
21
100
AcDbEntity
100
AcDbBlockEnd
0
BLOCK
5
1C
100
AcDbEntity
100
AcDbBlockBegin
2
*PAPER_SPACE
0
ENDBLK
5
1D
100
AcDbEntity
100
AcDbBlockEnd
0
ENDSEC
0
SECTION
2
ENTITIES
0
LWPOLYLINE
5
100
100
AcDbEntity
8
0
100
AcDbPolyline
90
22
70
1
43
0.0
10
130.81145249634832
20
-105.2574
10
111.33213259453117
20
-105.2574
10
111.11619178675248
20
-105.27529426502525
10
110.91619915058078
20
-105.32594031240308
10
110.72726939319375
20
-105.40881354757258
10
110.55455707114214
20
-105.52165278651039
10
110.402773858171
20
-105.66138011615664
10
110.27605811097297
20
-105.82418532226586
10
110.17786702319513
20
-106.00562689646601
10
110.11087968193411
20
-106.20075459264004
10
110.07692299999999
20
-106.40424652132525
10
110.07692299999999
20
-106.610553478675
10
110.11087968193408
20
-106.8140454073599
10
110.17786702319495
20
-107.00917310353356
10
110.27605811097288
20
-107.19061467773386
10
110.40277385817089
20
-107.35341988384307
10
110.55455707114265
20
-107.49314721348989
10
110.72726939319426
20
-107.60598645242769
10
110.91619915058106
20
-107.68885968759707
10
111.11619178675181
20
-107.7395057349747
10
111.33213259453117
20
-107.7574
10
130.81145249634832
20
-107.7574
42
0.99999999999999989
0
LWPOLYLINE
5
101
100
AcDbEntity
8
0
100
AcDbPolyline
90
22
70
1
43
0.0
10
167.10213259453116
20
-86.657399999999996
10
186.58145249634833
20
-86.657399999999996
10
186.79739650637049
20
-86.639507363866031
10
186.99739082650751
20
-86.588862977340824
10
187.18632223638383
20
-86.505990580652508
10
187.35903620187935
20
-86.393152188901922
10
187.51082213618233
20
-86.25342382116466
10
187.63753939656362
20
-86.090618810784207
10
187.73573111504206
20
-85.90917677719861
10
187.80271945125708
20
-85.714046943052267
10
187.83667700000001
20
-85.510553144812903
10
187.83667700000001
20
-85.304246855187543
10
187.80271945125693
20
-85.100753056947298
10
187.73573111504169
20
-84.905623222800486
10
187.63753939656419
20
-84.724181189216594
10
187.51082213618275
20
-84.561376178835872
10
187.35903620187869
20
-84.421647811097614
10
187.18632223638338
20
-84.30880941934717
10
186.99739082650837
20
-84.225937022659437
10
186.79739650637032
20
-84.17529263613396
10
186.58145249634813
20
-84.157399999999996
10
167.10213259453116
20
-84.157399999999996
42
0.99999999999999989
0
LWPOLYLINE
5
102
100
AcDbEntity
8
0
100
AcDbPolyline
90
22
70
1
43
0.0
10
160.75679199999999
20
-80.670667950910655
10
160.75679199999999
20
-61.191348049089385
10
160.73889854941712
20
-60.975405640187645
10
160.68825327536106
20
-60.775411936532713
10
160.60538097472801
20
-60.586481578403813
10
160.49254185333822
20
-60.413768603510896
10
160.35281336421542
20
-60.261983370110798
10
160.1900083251459
20
-60.135266920162103
10
160.00856724860932
20
-60.037076101705829
10
159.81343817520457
20
-59.970088573529395
10
159.60994506119226
20
-59.93613100000001
10
159.40363893880746
20
-59.93613100000001
10
159.2001458247951
20
-59.970088573529416
10
159.00501675139142
20
-60.037076101705452
10
158.82357567485394
20
-60.135266920162245
10
158.66077063578481
20
-60.26198337011067
10
158.52104214666142
20
-60.413768603511365
10
158.4082030252718
20
-60.586481578404033
10
158.32533072463906
20
-60.775411936532223
10
158.27468545058292
20
-60.975405640187418
10
158.25679199999999
20
-61.19134804908964
10
158.25679199999999
20
-80.670667950910655
42
0.99999999999999989
0
LWPOLYLINE
5
103
100
AcDbEntity
8
0
100
AcDbPolyline
90
22
70
1
43
0.0
10
137.156792
20
-111.24274004908935
10
137.156792
20
-130.72205995091062
10
137.1746854505829
20
-130.93800235981234
10
137.22533072463898
20
-131.13799606346728
10
137.30820302527206
20
-131.32692642159628
10
137.42104214666179
20
-131.49963939648916
10
137.56077063578522
20
-131.65142462988965
10
137.72357567485412
20
-131.77814107983789
10
137.90501675139078
20
-131.87633189829421
10
138.10014582479525
20
-131.94331942647057
10
138.30363893880767
20
-131.97727699999999
10
138.50994506119252
20
-131.97727699999999
10
138.713438175205
20
-131.94331942647057
10
138.90856724860862
20
-131.87633189829452
10
139.09000832514607
20
-131.77814107983775
10
139.25281336421537
20
-131.65142462988914
10
139.39254185333797
20
-131.49963939648956
10
139.50538097472818
20
-131.326926421596
10
139.5882532753609
20
-131.13799606346785
10
139.63889854941709
20
-130.93800235981243
10
139.656792
20
-130.72205995091062
10
139.656792
20
-111.24274004908935
42
0.99999999999999989
0
LWPOLYLINE
5
104
100
AcDbEntity
8
0
100
AcDbPolyline
90
22
70
1
43
0.0
10
130.81145249634832
20
-84.157399999999996
10
111.33213259453117
20
-84.157399999999996
10
111.11619178675248
20
-84.175294265025229
10
110.91619915058078
20
-84.225940312403083
10
110.72726939319384
20
-84.308813547572541
10
110.55455707114214
20
-84.421652786510393
10
110.402773858171
20
-84.561380116156641
10
110.27605811097295
20
-84.724185322265924
10
110.17786702319513
20
-84.905626896466018
10
110.11087968193411
20
-85.100754592640044
10
110.07692299999999
20
-85.304246521325354
10
110.07692299999999
20
-85.510553478674979
10
110.11087968193408
20
-85.714045407359862
10
110.17786702319495
20
-85.909173103533547
10
110.27605811097288
20
-86.090614677733839
10
110.40277385817089
20
-86.25341988384308
10
110.55455707114265
20
-86.393147213489925
10
110.72726939319426
20
-86.505986452427734
10
110.91619915058097
20
-86.588859687597065
10
111.11619178675181
20
-86.639505734974705
10
111.33213259453117
20
-86.657399999999996
10
130.81145249634832
20
-86.657399999999996
42
0.99999999999999989
0
LWPOLYLINE
5
105
100
AcDbEntity
8
0
100
AcDbPolyline
90
22
70
1
43
0.0
10
167.10213259453116
20
-107.7574
10
186.58145249634833
20
-107.7574
10
186.79739650637055
20
-107.73950736386604
10
186.99739082650751
20
-107.68886297734082
10
187.18632223638383
20
-107.60599058065253
10
187.35903620187935
20
-107.49315218890192
10
187.51082213618236
20
-107.3534238211646
10
187.63753939656362
20
-107.1906188107842
10
187.73573111504206
20
-107.0091767771986
10
187.80271945125708
20
-106.81404694305226
10
187.83667700000001
20
-106.61055314481291
10
187.83667700000001
20
-106.40424685518755
10
187.80271945125693
20
-106.20075305694733
10
187.73573111504169
20
-106.00562322280048
10
187.63753939656419
20
-105.8241811892166
10
187.5108221361827
20
-105.66137617883584
10
187.35903620187869
20
-105.52164781109761
10
187.18632223638338
20
-105.40880941934714
10
186.99739082650842
20
-105.32593702265947
10
186.79739650637018
20
-105.27529263613395
10
186.58145249634833
20
-105.2574
10
167.10213259453116
20
-105.2574
42
0.99999999999999989
0
LWPOLYLINE
5
106
100
AcDbEntity
8
0
100
AcDbPolyline
90
22
70
1
43
0.0
10
139.656792
20
-80.670667950910442
10
139.656792
20
-61.191348049089385
10
139.63889854941712
20
-60.975405640187645
10
139.58825327536107
20
-60.775411936532819
10
139.50538097472798
20
-60.586481578403777
10
139.39254185333809
20
-60.41376860351069
10
139.25281336421551
20
-60.261983370110897
10
139.09000832514596
20
-60.135266920162138
10
138.90856724860933
20
-60.037076101705829
10
138.71343817520457
20
-59.970088573529395
10
138.5099450611923
20
-59.93613100000001
10
138.30363893880747
20
-59.93613100000001
10
138.10014582479511
20
-59.970088573529416
10
137.90501675139143
20
-60.037076101705452
10
137.72357567485392
20
-60.135266920162245
10
137.56077063578485
20
-60.261983370110634
10
137.42104214666145
20
-60.413768603511365
10
137.30820302527181
20
-60.586481578404033
10
137.22533072463906
20
-60.775411936532223
10
137.1746854505829
20
-60.975405640187645
10
137.156792
20
-61.191348049089385
10
137.156792
20
-80.670667950910442
42
0.99999999999999989
0
LWPOLYLINE
5
107
100
AcDbEntity
8
0
100
AcDbPolyline
90
22
70
1
43
0.0
10
158.25679199999999
20
-111.24274004908963
10
158.25679199999999
20
-130.72205995091059
10
158.27468545058289
20
-130.93800235981223
10
158.32533072463903
20
-131.1379960634674
10
158.40820302527206
20
-131.32692642159628
10
158.52104214666178
20
-131.49963939648916
10
158.66077063578524
20
-131.65142462988965
10
158.82357567485406
20
-131.77814107983784
10
159.00501675139085
20
-131.87633189829427
10
159.20014582479524
20
-131.94331942647057
10
159.40363893880766
20
-131.97727699999999
10
159.60994506119252
20
-131.97727699999999
10
159.81343817520499
20
-131.94331942647057
10
160.00856724860856
20
-131.87633189829455
10
160.19000832514598
20
-131.77814107983778
10
160.35281336421534
20
-131.65142462988919
10
160.49254185333808
20
-131.49963939648941
10
160.60538097472815
20
-131.32692642159608
10
160.68825327536103
20
-131.13799606346757
10
160.73889854941712
20
-130.93800235981257
10
160.75679199999999
20
-130.72205995091062
10
160.75679199999999
20
-111.24274004908963
42
0.99999999999999989
0
LWPOLYLINE
5
108
100
AcDbEntity
8
0
100
AcDbPolyline
90
84
70
1
43
0.0
10
135.45679200000001
20
-54.872399999999999
10
142.95679200000001
20
-54.872399999999999
10
142.95679200000001
20
-84.371008000000018
10
154.95679200000001
20
-84.371008000000018
10
154.95679200000001
20
-54.872399999999999
10
161.526792
20
-54.872399999999999
10
162.45679200000001
20
-54.874918000000008
10
162.45679200000001
20
-50.872400000000006
10
194.901792
20
-50.872400000000006
10
195.18642200000002
20
-50.892756000000006
10
195.46525900000003
20
-50.953412
10
195.73262500000001
20
-51.053134
10
195.98307700000004
20
-51.189889999999998
10
196.21151800000004
20
-51.360898000000006
10
196.413297
20
-51.562676000000003
10
196.58430500000003
20
-51.791116000000002
10
196.72106299999999
20
-52.041567999999998
10
196.820786
20
-52.30893300000001
10
196.88144300000002
20
-52.587770000000006
10
196.90179200000003
20
-52.872400000000006
10
196.90179200000003
20
-82.457400000000007
10
192.901792
20
-82.457400000000007
10
192.901792
20
-89.957400000000007
10
163.401792
20
-89.957400000000007
10
163.401792
20
-101.95740000000001
10
192.901792
20
-101.95740000000001
10
192.901792
20
-108.5274
10
192.89927500000002
20
-109.45740000000001
10
196.90179200000003
20
-109.45740000000001
10
196.90179200000003
20
-139.04239999999999
10
196.88143500000001
20
-139.32702900000004
10
196.82077800000002
20
-139.605864
10
196.72105600000003
20
-139.87322900000004
10
196.58429900000002
20
-140.12368000000004
10
196.41329100000002
20
-140.35211900000002
10
196.21151300000002
20
-140.55389600000001
10
195.98307300000002
20
-140.72490300000001
10
195.73262099999999
20
-140.861659
10
195.46525700000004
20
-140.96137999999999
10
195.186421
20
-141.02203600000001
10
194.901792
20
-141.04239999999999
10
162.45679200000001
20
-141.04239999999999
10
162.45679200000001
20
-137.04239999999999
10
154.95679200000001
20
-137.04239999999999
10
154.95679200000001
20
-107.54240000000001
10
142.95679200000001
20
-107.54240000000001
10
142.95679200000001
20
-137.04239999999999
10
136.38679200000001
20
-137.04239999999999
10
135.45679200000001
20
-137.039883
10
135.45679200000001
20
-141.04239999999999
10
103.011792
20
-141.04239999999999
10
102.727163
20
-141.022042
10
102.448329
20
-140.96138400000001
10
102.18096500000001
20
-140.86166200000002
10
101.93051400000002
20
-140.72490400000001
10
101.70207500000001
20
-140.55389600000001
10
101.500298
20
-140.35211900000002
10
101.329291
20
-140.12367900000001
10
101.19253500000001
20
-139.87322800000001
10
101.092814
20
-139.605864
10
101.032157
20
-139.32702900000004
10
101.01179200000001
20
-139.04239999999999
10
101.01179200000001
20
-109.45740000000001
10
105.01179200000001
20
-109.45740000000001
10
105.01179200000001
20
-101.95740000000001
10
134.51179200000001
20
-101.95740000000001
10
134.51179200000001
20
-89.957400000000007
10
105.01179200000001
20
-89.957400000000007
10
105.01179200000001
20
-83.3874
10
105.01430999999999
20
-82.457400000000007
10
101.01179200000001
20
-82.457400000000007
10
101.01179200000001
20
-52.872400000000006
10
101.032149
20
-52.587770000000006
10
101.092806
20
-52.308934000000001
10
101.192528
20
-52.04156900000001
10
101.329285
20
-51.791116000000002
10
101.500292
20
-51.562676000000003
10
101.70207000000002
20
-51.360898000000006
10
101.93051
20
-51.189889000000008
10
102.180961
20
-51.053131
10
102.44832600000001
20
-50.95340800000001
10
102.72716200000002
20
-50.892750000000007
10
103.011792
20
-50.872400000000006
10
135.45679200000001
20
-50.872400000000006
0
CIRCLE
5
109
100
AcDbEntity
8
0
100
AcDbCircle
10
191.82179200000002
20
-132.1524
30
0
40
1.5900000000000003
210
0
220
-0
230
1
0
LWPOLYLINE
5
110
100
AcDbEntity
8
0
100
AcDbPolyline
90
14
70
1
43
0.0
10
153.156792
20
-102.111496
10
153.101888
20
-102.1664
10
153.08179200000001
20
-102.2414
10
153.08179200000001
20
-103.34139999999999
10
153.101888
20
-103.4164
10
153.156792
20
-103.471304
10
153.23179200000001
20
-103.4914
10
153.306792
20
-103.471304
10
153.36169599999999
20
-103.4164
10
153.38179199999999
20
-103.34139999999999
10
153.38179199999999
20
-102.2414
10
153.36169599999999
20
-102.1664
10
153.306792
20
-102.111496
10
153.23179200000001
20
-102.09139999999999
0
LWPOLYLINE
5
111
100
AcDbEntity
8
0
100
AcDbPolyline
90
14
70
1
43
0.0
10
159.330984
20
-100.15738800000001
10
159.27608000000001
20
-100.10248400000002
10
159.20107999999999
20
-100.08238800000001
10
158.10108
20
-100.08238800000001
10
158.02608000000001
20
-100.10248400000002
10
157.97117600000001
20
-100.15738800000001
10
157.95107999999999
20
-100.23238800000001
10
157.97117600000001
20
-100.30738800000002
10
158.02608000000001
20
-100.36229200000001
10
158.10108
20
-100.38238800000002
10
159.20107999999999
20
-100.38238800000002
10
159.27608000000001
20
-100.36229200000001
10
159.330984
20
-100.30738800000002
10
159.35108
20
-100.23238800000001
0
CIRCLE
5
112
100
AcDbEntity
8
0
100
AcDbCircle
10
106.091792
20
-135.9624
30
0
40
1.5900000000000003
210
0
220
-0
230
1
0
CIRCLE
5
113
100
AcDbEntity
8
0
100
AcDbCircle
10
109.01800000000001
20
-130.02940000000001
30
0
40
0.55000000000000004
210
0
220
-0
230
1
0
CIRCLE
5
114
100
AcDbEntity
8
0
100
AcDbCircle
10
109.01800000000001
20
-127.48940000000002
30
0
40
0.55000000000000004
210
0
220
-0
230
1
0
CIRCLE
5
115
100
AcDbEntity
8
0
100
AcDbCircle
10
109.01800000000001
20
-124.9494
30
0
40
0.55000000000000004
210
0
220
-0
230
1
0
CIRCLE
5
116
100
AcDbEntity
8
0
100
AcDbCircle
10
109.01800000000001
20
-122.40940000000002
30
0
40
0.55000000000000004
210
0
220
-0
230
1
0
LWPOLYLINE
5
117
100
AcDbEntity
8
0
100
AcDbPolyline
90
14
70
1
43
0.0
10
144.60679200000001
20
-102.111496
10
144.55188799999999
20
-102.1664
10
144.531792
20
-102.2414
10
144.531792
20
-103.34139999999999
10
144.55188799999999
20
-103.4164
10
144.60679200000001
20
-103.471304
10
144.68179200000003
20
-103.4914
10
144.75679199999999
20
-103.471304
10
144.81169600000001
20
-103.4164
10
144.83179200000001
20
-103.34139999999999
10
144.83179200000001
20
-102.2414
10
144.81169600000001
20
-102.1664
10
144.75679199999999
20
-102.111496
10
144.68179200000003
20
-102.09139999999999
0
LWPOLYLINE
5
118
100
AcDbEntity
8
0
100
AcDbPolyline
90
14
70
1
43
0.0
10
139.94034400000001
20
-100.15738800000001
10
139.88543999999999
20
-100.10248400000002
10
139.81044
20
-100.08238800000001
10
138.71044000000001
20
-100.08238800000001
10
138.63543999999999
20
-100.10248400000002
10
138.580536
20
-100.15738800000001
10
138.56044
20
-100.23238800000001
10
138.580536
20
-100.30738800000002
10
138.63543999999999
20
-100.36229200000001
10
138.71044000000001
20
-100.38238800000002
10
139.81044
20
-100.38238800000002
10
139.88543999999999
20
-100.36229200000001
10
139.94034400000001
20
-100.30738800000002
10
139.96044000000001
20
-100.23238800000001
0
CIRCLE
5
119
100
AcDbEntity
8
0
100
AcDbCircle
10
123.792
20
-115.91540000000002
30
0
40
0.44999999999999996
210
0
220
-0
230
1
0
CIRCLE
5
120
100
AcDbEntity
8
0
100
AcDbCircle
10
121.292
20
-115.91540000000002
30
0
40
0.44999999999999996
210
0
220
-0
230
1
0
CIRCLE
5
121
100
AcDbEntity
8
0
100
AcDbCircle
10
118.792
20
-115.91540000000002
30
0
40
0.44999999999999996
210
0
220
-0
230
1
0
CIRCLE
5
122
100
AcDbEntity
8
0
100
AcDbCircle
10
116.292
20
-115.91540000000002
30
0
40
0.44999999999999996
210
0
220
-0
230
1
0
CIRCLE
5
123
100
AcDbEntity
8
0
100
AcDbCircle
10
180.3304
20
-79.544399999999996
30
0
40
0.44999999999999996
210
0
220
-0
230
1
0
CIRCLE
5
124
100
AcDbEntity
8
0
100
AcDbCircle
10
177.8304
20
-79.544399999999996
30
0
40
0.44999999999999996
210
0
220
-0
230
1
0
CIRCLE
5
125
100
AcDbEntity
8
0
100
AcDbCircle
10
175.3304
20
-79.544399999999996
30
0
40
0.44999999999999996
210
0
220
-0
230
1
0
CIRCLE
5
126
100
AcDbEntity
8
0
100
AcDbCircle
10
172.8304
20
-79.544399999999996
30
0
40
0.44999999999999996
210
0
220
-0
230
1
0
LWPOLYLINE
5
127
100
AcDbEntity
8
0
100
AcDbPolyline
90
14
70
1
43
0.0
10
159.330984
20
-91.607388000000014
10
159.27608000000001
20
-91.552484000000021
10
159.20107999999999
20
-91.532387999999997
10
158.10108
20
-91.532387999999997
10
158.02608000000001
20
-91.552484000000021
10
157.97117600000001
20
-91.607388000000014
10
157.95107999999999
20
-91.682388000000003
10
157.97117600000001
20
-91.75738800000002
10
158.02608000000001
20
-91.812292000000014
10
158.10108
20
-91.832387999999995
10
159.20107999999999
20
-91.832387999999995
10
159.27608000000001
20
-91.812292000000014
10
159.330984
20
-91.75738800000002
10
159.35108
20
-91.682388000000003
0
LWPOLYLINE
5
128
100
AcDbEntity
8
0
100
AcDbPolyline
90
14
70
1
43
0.0
10
153.306792
20
-89.800743999999995
10
153.36169599999999
20
-89.745840000000001
10
153.38179199999999
20
-89.670839999999998
10
153.38179199999999
20
-88.570840000000004
10
153.36169599999999
20
-88.495840000000001
10
153.306792
20
-88.440935999999994
10
153.23179200000001
20
-88.420839999999998
10
153.156792
20
-88.440935999999994
10
153.101888
20
-88.495840000000001
10
153.08179200000001
20
-88.570840000000004
10
153.08179200000001
20
-89.670839999999998
10
153.101888
20
-89.745840000000001
10
153.156792
20
-89.800743999999995
10
153.23179200000001
20
-89.820840000000004
0
CIRCLE
5
129
100
AcDbEntity
8
0
100
AcDbCircle
10
187.6044
20
-72.339200000000005
30
0
40
0.55000000000000004
210
0
220
-0
230
1
0
CIRCLE
5
130
100
AcDbEntity
8
0
100
AcDbCircle
10
187.6044
20
-69.799199999999999
30
0
40
0.55000000000000004
210
0
220
-0
230
1
0
CIRCLE
5
131
100
AcDbEntity
8
0
100
AcDbCircle
10
187.6044
20
-67.259200000000007
30
0
40
0.55000000000000004
210
0
220
-0
230
1
0
CIRCLE
5
132
100
AcDbEntity
8
0
100
AcDbCircle
10
187.6044
20
-64.719200000000001
30
0
40
0.55000000000000004
210
0
220
-0
230
1
0
CIRCLE
5
133
100
AcDbEntity
8
0
100
AcDbCircle
10
191.82179200000002
20
-58.492400000000011
30
0
40
1.5900000000000003
210
0
220
-0
230
1
0
LWPOLYLINE
5
134
100
AcDbEntity
8
0
100
AcDbPolyline
90
14
70
1
43
0.0
10
139.94034400000001
20
-91.607388000000014
10
139.88543999999999
20
-91.552484000000021
10
139.81044
20
-91.532387999999997
10
138.71044000000001
20
-91.532387999999997
10
138.63543999999999
20
-91.552484000000021
10
138.580536
20
-91.607388000000014
10
138.56044
20
-91.682388000000003
10
138.580536
20
-91.75738800000002
10
138.63543999999999
20
-91.812292000000014
10
138.71044000000001
20
-91.832387999999995
10
139.81044
20
-91.832387999999995
10
139.88543999999999
20
-91.812292000000014
10
139.94034400000001
20
-91.75738800000002
10
139.96044000000001
20
-91.682388000000003
0
LWPOLYLINE
5
135
100
AcDbEntity
8
0
100
AcDbPolyline
90
14
70
1
43
0.0
10
144.75679199999999
20
-89.800743999999995
10
144.81169600000001
20
-89.745840000000001
10
144.83179200000001
20
-89.670839999999998
10
144.83179200000001
20
-88.570840000000004
10
144.81169600000001
20
-88.495840000000001
10
144.75679199999999
20
-88.440935999999994
10
144.68179200000003
20
-88.420839999999998
10
144.60679200000001
20
-88.440935999999994
10
144.55188799999999
20
-88.495840000000001
10
144.531792
20
-88.570840000000004
10
144.531792
20
-89.670839999999998
10
144.55188799999999
20
-89.745840000000001
10
144.60679200000001
20
-89.800743999999995
10
144.68179200000003
20
-89.820840000000004
0
CIRCLE
5
136
100
AcDbEntity
8
0
100
AcDbCircle
10
106.091792
20
-55.952400000000004
30
0
40
1.5900000000000003
210
0
220
-0
230
1
0
LINE
5
137
100
AcDbEntity
8
0
100
AcDbLine
10
119.59821720478452
20
-54.481928283220086
30
0
11
119.59821720478452
21
-60.000000894069672
31
0
0
LINE
5
138
100
AcDbEntity
8
0
100
AcDbLine
10
119.59821720478452
20
-54.481928283220086
30
0
11
122.00000181794167
21
-54.481928283220086
31
0
0
LINE
5
139
100
AcDbEntity
8
0
100
AcDbLine
10
119.59821720478452
20
-54.481928283220086
30
0
11
117.14573412811161
21
-54.481928283220086
31
0
0
LINE
5
140
100
AcDbEntity
8
0
100
AcDbLine
10
115.71511900005241
20
-54.686301872942821
30
0
11
115.71511900005241
21
-60.000000894069672
31
0
0
LINE
5
141
100
AcDbEntity
8
0
100
AcDbLine
10
115.71511900005241
20
-57.343151383506246
30
0
11
112.00000166893005
21
-60.000000894069672
31
0
0
SPLINE
5
142
100
AcDbEntity
8
0
100
AcDbSpline
70
4
71
5
72
36
73
30
74
0
42
0.000000001
43
0.0000000001
44
0.0000000001
40
0
40
0
40
0
40
0
40
0
40
0
40
0.040000000000000001
40
0.080000000000000002
40
0.12
40
0.16
40
0.20000000000000001
40
0.24000000000000002
40
0.28000000000000003
40
0.32000000000000001
40
0.35999999999999999
40
0.39999999999999997
40
0.43999999999999995
40
0.47999999999999993
40
0.51999999999999991
40
0.55999999999999994
40
0.59999999999999998
40
0.64000000000000001
40
0.68000000000000005
40
0.72000000000000008
40
0.76000000000000012
40
0.80000000000000016
40
0.84000000000000019
40
0.88000000000000023
40
0.92000000000000026
40
0.9600000000000003
40
1
40
1
40
1
40
1
40
1
40
1
41
1
41
1
41
1
41
1
41
1
41
1
41
1
41
1
41
1
41
1
41
1
41
1
41
1
41
1
41
1
41
1
41
1
41
1
41
1
41
1
41
1
41
1
41
1
41
1
41
1
41
1
41
1
41
1
41
1
41
1
10
115.71511900005241
20
-54.686301872942821
30
0
10
115.62442204243621
20
-54.664446864526454
30
0
10
115.4465370459029
20
-54.624460985816356
30
0
10
115.19023628051733
20
-54.575654574184696
30
0
10
114.86961053992286
20
-54.532982534512385
30
0
10
114.50432149169912
20
-54.517221353562284
30
0
10
114.17490520289022
20
-54.539164938696267
30
0
10
113.88168263645424
20
-54.59860355218715
30
0
10
113.62479694340311
20
-54.694754947597737
30
0
10
113.40403679668174
20
-54.826013152339399
30
0
10
113.21877016965585
20
-54.989675709253248
30
0
10
113.06850709230903
20
-55.181725468916568
30
0
10
112.95342973362327
20
-55.396523979755997
30
0
10
112.87481623918092
20
-55.626630768542036
30
0
10
112.83577009662102
20
-55.862242533998085
30
0
10
112.84070444879985
20
-56.09200648920897
30
0
10
112.89371798270204
20
-56.30505278270698
30
0
10
112.99733355015564
20
-56.492606020556323
30
0
10
113.15090584982036
20
-56.649967328947341
30
0
10
113.34955065135703
20
-56.777877199016658
30
0
10
113.58583483077265
20
-56.880607951083597
30
0
10
113.85115704246917
20
-56.964425466970113
30
0
10
114.13710784818342
20
-57.036057520350674
30
0
10
114.437076518268
20
-57.100910378901702
30
0
10
114.74676687091971
20
-57.162434121671673
30
0
10
115.0635316500443
20
-57.222736169546515
30
0
10
115.32153657639358
20
-57.270824203627839
30
0
10
115.51740878514721
20
-57.306960765250153
30
0
10
115.64904055889036
20
-57.331082683018209
30
0
10
115.71511900005241
20
-57.343151383506246
30
0
0
ENDSEC
0
SECTION
2
OBJECTS
0
DICTIONARY
5
C
100
AcDbDictionary
3
ACAD_GROUP
350
D
3
ACAD_MLINESTYLE
350
17
0
DICTIONARY
5
D
100
AcDbDictionary
0
DICTIONARY
5
1A
330
C
100
AcDbDictionary
0
DICTIONARY
5
17
100
AcDbDictionary
0
ENDSEC
0
EOF
