0
SECTION
2
HEADER
9
$INSUNITS
70
4
9
$ACADVER
1
AC1014
9
$HANDSEED
5
FFFF
0
ENDSEC
0
SECTION
2
TABLES
0
TABLE
2
VPORT
5
8
100
AcDbSymbolTable
0
ENDTAB
0
TABLE
2
LTYPE
5
5
100
AcDbSymbolTable
0
LTYPE
5
14
100
AcDbSymbolTableRecord
100
AcDbLinetypeTableRecord
2
BYBLOCK
70
0
0
LTYPE
5
15
100
AcDbSymbolTableRecord
100
AcDbLinetypeTableRecord
2
BYLAYER
70
0
0
ENDTAB
0
TABLE
2
LAYER
5
2
100
AcDbSymbolTable
70
2
0
LAYER
5
50
100
AcDbSymbolTableRecord
100
AcDbLayerTableRecord
2
0
70
0
6
CONTINUOUS
0
ENDTAB
0
TABLE
2
STYLE
5
3
100
AcDbSymbolTable
70
1
0
STYLE
5
11
100
AcDbSymbolTableRecord
100
AcDbTextStyleTableRecord
2
STANDARD
70
0
0
ENDTAB
0
TABLE
2
VIEW
5
6
100
AcDbSymbolTable
70
0
0
ENDTAB
0
TABLE
2
UCS
5
7
100
AcDbSymbolTable
70
0
0
ENDTAB
0
TABLE
2
APPID
5
9
100
AcDbSymbolTable
70
2
0
APPID
5
12
100
AcDbSymbolTableRecord
100
AcDbRegAppTableRecord
2
ACAD
70
0
0
ENDTAB
0
TABLE
2
DIMSTYLE
5
A
100
AcDbSymbolTable
70
1
0
ENDTAB
0
TABLE
2
BLOCK_RECORD
5
1
100
AcDbSymbolTable
70
1
0
BLOCK_RECORD
5
1F
100
AcDbSymbolTableRecord
100
AcDbBlockTableRecord
2
*MODEL_SPACE
0
BLOCK_RECORD
5
1B
100
AcDbSymbolTableRecord
100
AcDbBlockTableRecord
2
*PAPER_SPACE
0
ENDTAB
0
ENDSEC
0
SECTION
2
BLOCKS
0
BLOCK
5
20
100
AcDbEntity
100
AcDbBlockBegin
2
*MODEL_SPACE
0
ENDBLK
5
21
100
AcDbEntity
100
AcDbBlockEnd
0
BLOCK
5
1C
100
AcDbEntity
100
AcDbBlockBegin
2
*PAPER_SPACE
0
ENDBLK
5
1D
100
AcDbEntity
100
AcDbBlockEnd
0
ENDSEC
0
SECTION
2
ENTITIES
0
LWPOLYLINE
5
100
100
AcDbEntity
8
0
100
AcDbPolyline
90
84
70
1
43
0.0
10
136.39500000000001
20
-54.880000000000003
10
135.46500000000003
20
-54.882518000000005
10
135.46500000000003
20
-50.88000000000001
10
103.02
20
-50.88000000000001
10
102.73537000000002
20
-50.900356000000002
10
102.45653300000001
20
-50.961011999999997
10
102.18916700000001
20
-51.060733999999997
10
101.938715
20
-51.197490000000002
10
101.710274
20
-51.368498000000002
10
101.508495
20
-51.570276
10
101.337487
20
-51.798715999999999
10
101.200729
20
-52.049168000000002
10
101.10100600000001
20
-52.316533000000007
10
101.04034900000002
20
-52.59537000000001
10
101.02000000000001
20
-52.880000000000003
10
101.02000000000001
20
-82.465000000000003
10
105.02000000000001
20
-82.465000000000003
10
105.02000000000001
20
-89.965000000000003
10
134.52000000000001
20
-89.965000000000003
10
134.52000000000001
20
-101.965
10
105.02000000000001
20
-101.965
10
105.02000000000001
20
-108.535
10
105.02251700000001
20
-109.465
10
101.02000000000001
20
-109.465
10
101.02000000000001
20
-139.05000000000001
10
101.040357
20
-139.33462900000001
10
101.10101400000002
20
-139.61346399999999
10
101.20073600000001
20
-139.88082900000001
10
101.33749299999999
20
-140.13128
10
101.508501
20
-140.35971900000001
10
101.710279
20
-140.56149600000001
10
101.93871900000002
20
-140.73250300000001
10
102.189171
20
-140.869259
10
102.45653500000002
20
-140.96897999999999
10
102.735371
20
-141.02963600000004
10
103.02
20
-141.05000000000001
10
135.46500000000003
20
-141.05000000000001
10
135.46500000000003
20
-137.05000000000001
10
142.96500000000003
20
-137.05000000000001
10
142.96500000000003
20
-107.55000000000001
10
154.965
20
-107.55000000000001
10
154.965
20
-137.05000000000001
10
161.53500000000003
20
-137.05000000000001
10
162.465
20
-137.047483
10
162.465
20
-141.05000000000001
10
194.91
20
-141.05000000000001
10
195.19462900000002
20
-141.029642
10
195.47346300000001
20
-140.96898400000001
10
195.74082700000002
20
-140.86926199999999
10
195.99127800000002
20
-140.73250400000001
10
196.21971700000003
20
-140.56149600000001
10
196.421494
20
-140.35971900000001
10
196.59250100000003
20
-140.13127900000001
10
196.72925700000002
20
-139.88082800000001
10
196.82897800000003
20
-139.61346399999999
10
196.889635
20
-139.33462900000001
10
196.91000000000003
20
-139.05000000000001
10
196.91000000000003
20
-109.465
10
192.91
20
-109.465
10
192.91
20
-101.965
10
163.41000000000003
20
-101.965
10
163.41000000000003
20
-89.965000000000003
10
192.91
20
-89.965000000000003
10
192.91
20
-83.394999999999996
10
192.90748199999999
20
-82.465000000000003
10
196.91000000000003
20
-82.465000000000003
10
196.91000000000003
20
-52.880000000000003
10
196.88964300000004
20
-52.59537000000001
10
196.82898600000001
20
-52.316533999999997
10
196.729264
20
-52.049169000000006
10
196.59250700000001
20
-51.798715999999999
10
196.42150000000001
20
-51.570276
10
196.21972200000002
20
-51.368498000000002
10
195.99128200000001
20
-51.197489000000004
10
195.74083099999999
20
-51.060730999999997
10
195.473466
20
-50.961008000000007
10
195.19463000000002
20
-50.900350000000003
10
194.91
20
-50.88000000000001
10
162.465
20
-50.88000000000001
10
162.465
20
-54.880000000000003
10
154.965
20
-54.880000000000003
10
154.965
20
-84.378608000000014
10
142.96500000000003
20
-84.378608000000014
10
142.96500000000003
20
-54.880000000000003
0
CIRCLE
5
101
100
AcDbEntity
8
0
100
AcDbCircle
10
191.82179200000002
20
-135.9624
30
0
40
1.6000000000000003
210
0
220
-0
230
1
0
LWPOLYLINE
5
102
100
AcDbEntity
8
0
100
AcDbPolyline
90
38
70
1
43
0.0
10
160.75163400000002
20
-130.844549
10
160.71162000000001
20
-131.065046
10
160.63287700000001
20
-131.274855
10
160.51793700000002
20
-131.467232
10
160.37049400000001
20
-131.63599400000004
10
160.19528700000001
20
-131.77571699999999
10
159.99794700000001
20
-131.88191
10
159.784817
20
-131.95115999999999
10
159.562747
20
-131.98124100000001
10
159.338874
20
-131.97118699999999
10
159.120395
20
-131.92132100000003
10
158.91433000000001
20
-131.83324400000001
10
158.727304
20
-131.709789
10
158.565327
20
-131.554923
10
158.433605
20
-131.37362400000001
10
158.33637200000001
20
-131.171719
10
158.27675400000001
20
-130.95569599999999
10
158.256666
20
-130.73249999999999
10
158.256666
20
-113.24750000000002
10
158.261698
20
-113.135451
10
158.30171200000001
20
-112.91495400000001
10
158.38045500000001
20
-112.70514500000002
10
158.495395
20
-112.51276799999999
10
158.64283800000004
20
-112.34400600000001
10
158.81804500000001
20
-112.20428300000002
10
159.01538500000001
20
-112.09809
10
159.22851500000002
20
-112.02884
10
159.45058499999999
20
-111.99875900000002
10
159.67445800000002
20
-112.008813
10
159.89293699999999
20
-112.05867900000001
10
160.09900200000001
20
-112.146756
10
160.28602799999999
20
-112.27021100000002
10
160.44800500000002
20
-112.42507700000002
10
160.57972699999999
20
-112.60637600000001
10
160.67696000000001
20
-112.80828100000001
10
160.73657800000004
20
-113.024304
10
160.75666600000002
20
-113.24750000000002
10
160.75666600000002
20
-130.73249999999999
0
CIRCLE
5
103
100
AcDbEntity
8
0
100
AcDbCircle
10
184.43000000000001
20
-115.18000000000001
30
0
40
0.44999999999999996
210
0
220
-0
230
1
0
CIRCLE
5
104
100
AcDbEntity
8
0
100
AcDbCircle
10
181.93000000000001
20
-115.18000000000001
30
0
40
0.44999999999999996
210
0
220
-0
230
1
0
CIRCLE
5
105
100
AcDbEntity
8
0
100
AcDbCircle
10
179.43000000000001
20
-115.18000000000001
30
0
40
0.44999999999999996
210
0
220
-0
230
1
0
CIRCLE
5
106
100
AcDbEntity
8
0
100
AcDbCircle
10
176.93000000000001
20
-115.18000000000001
30
0
40
0.44999999999999996
210
0
220
-0
230
1
0
LWPOLYLINE
5
107
100
AcDbEntity
8
0
100
AcDbPolyline
90
38
70
1
43
0.0
10
186.706875
20
-105.26243200000002
10
186.92737199999999
20
-105.30244600000002
10
187.137181
20
-105.38118900000001
10
187.32955799999999
20
-105.496129
10
187.49832000000001
20
-105.64357200000002
10
187.63804300000001
20
-105.81877900000002
10
187.74423600000003
20
-106.01611900000002
10
187.81348600000001
20
-106.22924900000001
10
187.84356700000001
20
-106.45131900000001
10
187.83351300000004
20
-106.67519200000001
10
187.783647
20
-106.893671
10
187.69557000000003
20
-107.09973599999999
10
187.572115
20
-107.28676200000001
10
187.41724900000003
20
-107.44873900000002
10
187.23595
20
-107.58046100000001
10
187.03404500000002
20
-107.677694
10
186.81802200000004
20
-107.737312
10
186.59482600000001
20
-107.7574
10
169.109826
20
-107.7574
10
168.99777700000001
20
-107.75236800000002
10
168.77728000000002
20
-107.71235400000002
10
168.56747100000004
20
-107.633611
10
168.37509399999999
20
-107.518671
10
168.206332
20
-107.37122800000002
10
168.066609
20
-107.19602100000002
10
167.96041600000001
20
-106.99868100000002
10
167.891166
20
-106.785551
10
167.861085
20
-106.56348100000001
10
167.87113900000003
20
-106.339608
10
167.92100500000001
20
-106.121129
10
168.00908200000003
20
-105.915064
10
168.13253700000001
20
-105.72803800000001
10
168.28740300000004
20
-105.56606100000002
10
168.46870200000001
20
-105.43433899999999
10
168.67060699999999
20
-105.33710600000001
10
168.88663000000003
20
-105.27748800000001
10
169.109826
20
-105.2574
10
186.59482600000001
20
-105.2574
0
LWPOLYLINE
5
108
100
AcDbEntity
8
0
100
AcDbPolyline
90
14
70
1
43
0.0
10
162.20470000000003
20
-100.10248400000002
10
162.25960400000002
20
-100.15738800000001
10
162.27969999999999
20
-100.23238800000001
10
162.25960400000002
20
-100.30738800000002
10
162.20470000000003
20
-100.36229200000001
10
162.12970000000001
20
-100.38238800000002
10
160.8519
20
-100.38238800000002
10
160.77690000000001
20
-100.36229200000001
10
160.72199600000002
20
-100.30738800000002
10
160.70189999999999
20
-100.23238800000001
10
160.72199600000002
20
-100.15738800000001
10
160.77690000000001
20
-100.10248400000002
10
160.8519
20
-100.08238800000001
10
162.12970000000001
20
-100.08238800000001
0
LWPOLYLINE
5
109
100
AcDbEntity
8
0
100
AcDbPolyline
90
14
70
1
43
0.0
10
153.101888
20
-104.92230000000001
10
153.156792
20
-104.867396
10
153.23179200000001
20
-104.8473
10
153.306792
20
-104.867396
10
153.36169599999999
20
-104.92230000000001
10
153.38179199999999
20
-104.9973
10
153.38179199999999
20
-106.27510000000001
10
153.36169599999999
20
-106.35010000000001
10
153.306792
20
-106.40500400000001
10
153.23179200000001
20
-106.42510000000001
10
153.156792
20
-106.40500400000001
10
153.101888
20
-106.35010000000001
10
153.08179200000001
20
-106.27510000000001
10
153.08179200000001
20
-104.9973
0
LWPOLYLINE
5
110
100
AcDbEntity
8
0
100
AcDbPolyline
90
38
70
1
43
0.0
10
137.16191799999999
20
-113.135451
10
137.201932
20
-112.91495400000001
10
137.28067500000003
20
-112.70514500000002
10
137.39561500000002
20
-112.51276799999999
10
137.543058
20
-112.34400600000001
10
137.718265
20
-112.20428300000002
10
137.915605
20
-112.09809
10
138.12873500000001
20
-112.02884
10
138.35080500000001
20
-111.99875900000002
10
138.57467800000001
20
-112.008813
10
138.79315700000001
20
-112.05867900000001
10
138.999222
20
-112.146756
10
139.18624800000001
20
-112.27021100000002
10
139.34822500000001
20
-112.42507700000002
10
139.47994700000004
20
-112.60637600000001
10
139.57718
20
-112.80828100000001
10
139.636798
20
-113.024304
10
139.65688599999999
20
-113.24750000000002
10
139.65688599999999
20
-130.73249999999999
10
139.65185399999999
20
-130.844549
10
139.61184
20
-131.065046
10
139.533097
20
-131.274855
10
139.41815700000001
20
-131.467232
10
139.270714
20
-131.63599400000004
10
139.095507
20
-131.77571699999999
10
138.898167
20
-131.88191
10
138.68503699999999
20
-131.95115999999999
10
138.46296699999999
20
-131.98124100000001
10
138.23909399999999
20
-131.97118699999999
10
138.02061500000002
20
-131.92132100000003
10
137.81455
20
-131.83324400000001
10
137.62752399999999
20
-131.709789
10
137.46554699999999
20
-131.554923
10
137.33382499999999
20
-131.37362400000001
10
137.236592
20
-131.171719
10
137.176974
20
-130.95569599999999
10
137.15688599999999
20
-130.73249999999999
10
137.15688599999999
20
-113.24750000000002
0
CIRCLE
5
111
100
AcDbEntity
8
0
100
AcDbCircle
10
132.16499999999999
20
-124.47499999999999
30
0
40
0.44999999999999996
210
0
220
-0
230
1
0
CIRCLE
5
112
100
AcDbEntity
8
0
100
AcDbCircle
10
129.66499999999999
20
-124.47499999999999
30
0
40
0.44999999999999996
210
0
220
-0
230
1
0
CIRCLE
5
113
100
AcDbEntity
8
0
100
AcDbCircle
10
127.16500000000002
20
-124.47499999999999
30
0
40
0.44999999999999996
210
0
220
-0
230
1
0
CIRCLE
5
114
100
AcDbEntity
8
0
100
AcDbCircle
10
106.091792
20
-132.1524
30
0
40
1.6000000000000003
210
0
220
-0
230
1
0
CIRCLE
5
115
100
AcDbEntity
8
0
100
AcDbCircle
10
124.66500000000002
20
-124.47499999999999
30
0
40
0.44999999999999996
210
0
220
-0
230
1
0
CIRCLE
5
116
100
AcDbEntity
8
0
100
AcDbCircle
10
117.14500000000001
20
-125.00500000000001
30
0
40
0.44999999999999996
210
0
220
-0
230
1
0
CIRCLE
5
117
100
AcDbEntity
8
0
100
AcDbCircle
10
114.64500000000001
20
-125.00500000000001
30
0
40
0.44999999999999996
210
0
220
-0
230
1
0
CIRCLE
5
118
100
AcDbEntity
8
0
100
AcDbCircle
10
112.14500000000001
20
-125.00500000000001
30
0
40
0.44999999999999996
210
0
220
-0
230
1
0
CIRCLE
5
119
100
AcDbEntity
8
0
100
AcDbCircle
10
109.64500000000001
20
-125.00500000000001
30
0
40
0.44999999999999996
210
0
220
-0
230
1
0
LWPOLYLINE
5
120
100
AcDbEntity
8
0
100
AcDbPolyline
90
14
70
1
43
0.0
10
144.55188799999999
20
-104.92230000000001
10
144.60679200000001
20
-104.867396
10
144.68179200000003
20
-104.8473
10
144.75679199999999
20
-104.867396
10
144.81169600000001
20
-104.92230000000001
10
144.83179200000001
20
-104.9973
10
144.83179200000001
20
-106.27510000000001
10
144.81169600000001
20
-106.35010000000001
10
144.75679199999999
20
-106.40500400000001
10
144.68179200000003
20
-106.42510000000001
10
144.60679200000001
20
-106.40500400000001
10
144.55188799999999
20
-106.35010000000001
10
144.531792
20
-106.27510000000001
10
144.531792
20
-104.9973
0
LWPOLYLINE
5
121
100
AcDbEntity
8
0
100
AcDbPolyline
90
14
70
1
43
0.0
10
137.1524
20
-100.10248400000002
10
137.20730400000002
20
-100.15738800000001
10
137.22739999999999
20
-100.23238800000001
10
137.20730400000002
20
-100.30738800000002
10
137.1524
20
-100.36229200000001
10
137.07740000000001
20
-100.38238800000002
10
135.7996
20
-100.38238800000002
10
135.72460000000001
20
-100.36229200000001
10
135.66969599999999
20
-100.30738800000002
10
135.64959999999999
20
-100.23238800000001
10
135.66969599999999
20
-100.15738800000001
10
135.72460000000001
20
-100.10248400000002
10
135.7996
20
-100.08238800000001
10
137.07740000000001
20
-100.08238800000001
0
LWPOLYLINE
5
122
100
AcDbEntity
8
0
100
AcDbPolyline
90
38
70
1
43
0.0
10
128.91454899999999
20
-105.25503200000001
10
129.13504599999999
20
-105.29504600000001
10
129.344855
20
-105.373789
10
129.53723199999999
20
-105.48872900000001
10
129.705994
20
-105.63617200000002
10
129.84571700000001
20
-105.81137900000002
10
129.95191
20
-106.00871900000001
10
130.02116000000001
20
-106.22184900000001
10
130.051241
20
-106.44391900000001
10
130.04118700000001
20
-106.66779200000001
10
129.991321
20
-106.88627099999999
10
129.903244
20
-107.09233600000002
10
129.77978899999999
20
-107.27936200000002
10
129.62492300000002
20
-107.44133900000001
10
129.443624
20
-107.57306100000001
10
129.24171899999999
20
-107.670294
10
129.02569600000001
20
-107.729912
10
128.80250000000001
20
-107.75
10
111.3175
20
-107.75
10
111.20545100000001
20
-107.74496800000001
10
110.98495400000002
20
-107.70495400000001
10
110.77514499999999
20
-107.62621100000001
10
110.58276800000002
20
-107.51127099999999
10
110.41400600000001
20
-107.36382800000001
10
110.274283
20
-107.18862100000001
10
110.16809000000002
20
-106.99128100000001
10
110.09884
20
-106.77815100000001
10
110.068759
20
-106.55608100000002
10
110.07881300000001
20
-106.33220800000001
10
110.12867900000002
20
-106.11372900000001
10
110.21675600000002
20
-105.907664
10
110.34021100000001
20
-105.72063800000001
10
110.49507699999999
20
-105.55866100000001
10
110.676376
20
-105.42693900000002
10
110.87828100000002
20
-105.329706
10
111.09430400000001
20
-105.27008800000002
10
111.3175
20
-105.25
10
128.80250000000001
20
-105.25
0
LWPOLYLINE
5
123
100
AcDbEntity
8
0
100
AcDbPolyline
90
38
70
1
43
0.0
10
186.706875
20
-84.161040000000014
10
186.92737199999999
20
-84.201053999999999
10
187.137181
20
-84.279797000000002
10
187.32955799999999
20
-84.394737000000006
10
187.49832000000001
20
-84.542180000000002
10
187.63804300000001
20
-84.717387000000016
10
187.74423600000003
20
-84.914727000000013
10
187.81348600000001
20
-85.127857000000006
10
187.84356700000001
20
-85.349927000000008
10
187.83351300000004
20
-85.573800000000006
10
187.783647
20
-85.792278999999994
10
187.69557000000003
20
-85.998344000000003
10
187.572115
20
-86.18537000000002
10
187.41724900000003
20
-86.347347000000013
10
187.23595
20
-86.47906900000001
10
187.03404500000002
20
-86.576301999999998
10
186.81802200000004
20
-86.635919999999999
10
186.59482600000001
20
-86.656008
10
169.109826
20
-86.656008
10
168.99777700000001
20
-86.650976000000014
10
168.77728000000002
20
-86.610962000000015
10
168.56747100000004
20
-86.532218999999998
10
168.37509399999999
20
-86.417278999999994
10
168.206332
20
-86.269836000000012
10
168.066609
20
-86.094628999999998
10
167.96041600000001
20
-85.897289000000001
10
167.891166
20
-85.684158999999994
10
167.861085
20
-85.46208900000002
10
167.87113900000003
20
-85.238215999999994
10
167.92100500000001
20
-85.019737000000006
10
168.00908200000003
20
-84.813671999999997
10
168.13253700000001
20
-84.626645999999994
10
168.28740300000004
20
-84.464669000000015
10
168.46870200000001
20
-84.332947000000019
10
168.67060699999999
20
-84.235714000000002
10
168.88663000000003
20
-84.176096000000001
10
169.109826
20
-84.156008
10
186.59482600000001
20
-84.156008
0
LWPOLYLINE
5
124
100
AcDbEntity
8
0
100
AcDbPolyline
90
14
70
1
43
0.0
10
162.20470000000003
20
-91.552484000000021
10
162.25960400000002
20
-91.607388000000014
10
162.27969999999999
20
-91.682388000000003
10
162.25960400000002
20
-91.75738800000002
10
162.20470000000003
20
-91.812292000000014
10
162.12970000000001
20
-91.832387999999995
10
160.8519
20
-91.832387999999995
10
160.77690000000001
20
-91.812292000000014
10
160.72199600000002
20
-91.75738800000002
10
160.70189999999999
20
-91.682388000000003
10
160.72199600000002
20
-91.607388000000014
10
160.77690000000001
20
-91.552484000000021
10
160.8519
20
-91.532387999999997
10
162.12970000000001
20
-91.532387999999997
0
LWPOLYLINE
5
125
100
AcDbEntity
8
0
100
AcDbPolyline
90
14
70
1
43
0.0
10
153.36169599999999
20
-87.012799999999999
10
153.306792
20
-87.06770400000002
10
153.23179200000001
20
-87.087800000000016
10
153.156792
20
-87.06770400000002
10
153.101888
20
-87.012799999999999
10
153.08179200000001
20
-86.93780000000001
10
153.08179200000001
20
-85.660000000000011
10
153.101888
20
-85.585000000000008
10
153.156792
20
-85.530096000000015
10
153.23179200000001
20
-85.510000000000005
10
153.306792
20
-85.530096000000015
10
153.36169599999999
20
-85.585000000000008
10
153.38179199999999
20
-85.660000000000011
10
153.38179199999999
20
-86.93780000000001
0
CIRCLE
5
126
100
AcDbEntity
8
0
100
AcDbCircle
10
191.82179200000002
20
-55.952400000000004
30
0
40
1.6000000000000003
210
0
220
-0
230
1
0
LWPOLYLINE
5
127
100
AcDbEntity
8
0
100
AcDbPolyline
90
38
70
1
43
0.0
10
158.261698
20
-61.060759000000004
10
158.30171200000001
20
-60.840262000000003
10
158.38045500000001
20
-60.630453000000003
10
158.495395
20
-60.438076000000009
10
158.64283800000004
20
-60.269314000000008
10
158.81804500000001
20
-60.129590999999998
10
159.01538500000001
20
-60.023398000000007
10
159.22851500000002
20
-59.954148000000004
10
159.45058499999999
20
-59.924067000000001
10
159.67445800000002
20
-59.934121000000005
10
159.89293699999999
20
-59.983986999999999
10
160.09900200000001
20
-60.072064000000005
10
160.28602799999999
20
-60.195518999999997
10
160.44800500000002
20
-60.350385000000003
10
160.57972699999999
20
-60.531684000000006
10
160.67696000000001
20
-60.733589000000009
10
160.73657800000004
20
-60.949612000000002
10
160.75666600000002
20
-61.172808000000003
10
160.75666600000002
20
-78.657808000000003
10
160.75163400000002
20
-78.769857000000002
10
160.71162000000001
20
-78.990353999999996
10
160.63287700000001
20
-79.200163000000003
10
160.51793700000002
20
-79.392539999999997
10
160.37049400000001
20
-79.561302000000012
10
160.19528700000001
20
-79.701025000000001
10
159.99794700000001
20
-79.807218000000006
10
159.784817
20
-79.876468000000003
10
159.562747
20
-79.906548999999998
10
159.338874
20
-79.896495000000002
10
159.120395
20
-79.846629000000007
10
158.91433000000001
20
-79.758551999999995
10
158.727304
20
-79.635097000000002
10
158.565327
20
-79.480231000000003
10
158.433605
20
-79.298931999999994
10
158.33637200000001
20
-79.097026999999997
10
158.27675400000001
20
-78.881004000000004
10
158.256666
20
-78.657808000000003
10
158.256666
20
-61.172808000000003
0
LWPOLYLINE
5
128
100
AcDbEntity
8
0
100
AcDbPolyline
90
14
70
1
43
0.0
10
144.81169600000001
20
-87.012799999999999
10
144.75679199999999
20
-87.06770400000002
10
144.68179200000003
20
-87.087800000000016
10
144.60679200000001
20
-87.06770400000002
10
144.55188799999999
20
-87.012799999999999
10
144.531792
20
-86.93780000000001
10
144.531792
20
-85.660000000000011
10
144.55188799999999
20
-85.585000000000008
10
144.60679200000001
20
-85.530096000000015
10
144.68179200000003
20
-85.510000000000005
10
144.75679199999999
20
-85.530096000000015
10
144.81169600000001
20
-85.585000000000008
10
144.83179200000001
20
-85.660000000000011
10
144.83179200000001
20
-86.93780000000001
0
LWPOLYLINE
5
129
100
AcDbEntity
8
0
100
AcDbPolyline
90
14
70
1
43
0.0
10
137.1524
20
-91.552484000000021
10
137.20730400000002
20
-91.607388000000014
10
137.22739999999999
20
-91.682388000000003
10
137.20730400000002
20
-91.75738800000002
10
137.1524
20
-91.812292000000014
10
137.07740000000001
20
-91.832387999999995
10
135.7996
20
-91.832387999999995
10
135.72460000000001
20
-91.812292000000014
10
135.66969599999999
20
-91.75738800000002
10
135.64959999999999
20
-91.682388000000003
10
135.66969599999999
20
-91.607388000000014
10
135.72460000000001
20
-91.552484000000021
10
135.7996
20
-91.532387999999997
10
137.07740000000001
20
-91.532387999999997
0
LWPOLYLINE
5
130
100
AcDbEntity
8
0
100
AcDbPolyline
90
38
70
1
43
0.0
10
128.91454899999999
20
-84.161040000000014
10
129.13504599999999
20
-84.201053999999999
10
129.344855
20
-84.279797000000002
10
129.53723199999999
20
-84.394737000000006
10
129.705994
20
-84.542180000000002
10
129.84571700000001
20
-84.717387000000016
10
129.95191
20
-84.914727000000013
10
130.02116000000001
20
-85.127857000000006
10
130.051241
20
-85.349927000000008
10
130.04118700000001
20
-85.573800000000006
10
129.991321
20
-85.792278999999994
10
129.903244
20
-85.998344000000003
10
129.77978899999999
20
-86.18537000000002
10
129.62492300000002
20
-86.347347000000013
10
129.443624
20
-86.47906900000001
10
129.24171899999999
20
-86.576301999999998
10
129.02569600000001
20
-86.635919999999999
10
128.80250000000001
20
-86.656008
10
111.3175
20
-86.656008
10
111.20545100000001
20
-86.650976000000014
10
110.98495400000002
20
-86.610962000000015
10
110.77514499999999
20
-86.532218999999998
10
110.58276800000002
20
-86.417278999999994
10
110.41400600000001
20
-86.269836000000012
10
110.274283
20
-86.094628999999998
10
110.16809000000002
20
-85.897289000000001
10
110.09884
20
-85.684158999999994
10
110.068759
20
-85.46208900000002
10
110.07881300000001
20
-85.238215999999994
10
110.12867900000002
20
-85.019737000000006
10
110.21675600000002
20
-84.813671999999997
10
110.34021100000001
20
-84.626645999999994
10
110.49507699999999
20
-84.464669000000015
10
110.676376
20
-84.332947000000019
10
110.87828100000002
20
-84.235714000000002
10
111.09430400000001
20
-84.176096000000001
10
111.3175
20
-84.156008
10
128.80250000000001
20
-84.156008
0
CIRCLE
5
131
100
AcDbEntity
8
0
100
AcDbCircle
10
122.95500000000001
20
-79.115000000000009
30
0
40
0.44999999999999996
210
0
220
-0
230
1
0
CIRCLE
5
132
100
AcDbEntity
8
0
100
AcDbCircle
10
120.45500000000001
20
-79.115000000000009
30
0
40
0.44999999999999996
210
0
220
-0
230
1
0
CIRCLE
5
133
100
AcDbEntity
8
0
100
AcDbCircle
10
117.95500000000001
20
-79.115000000000009
30
0
40
0.44999999999999996
210
0
220
-0
230
1
0
CIRCLE
5
134
100
AcDbEntity
8
0
100
AcDbCircle
10
115.45500000000001
20
-79.115000000000009
30
0
40
0.44999999999999996
210
0
220
-0
230
1
0
LWPOLYLINE
5
135
100
AcDbEntity
8
0
100
AcDbPolyline
90
38
70
1
43
0.0
10
137.16191799999999
20
-61.060759000000004
10
137.201932
20
-60.840262000000003
10
137.28067500000003
20
-60.630453000000003
10
137.39561500000002
20
-60.438076000000009
10
137.543058
20
-60.269314000000008
10
137.718265
20
-60.129590999999998
10
137.915605
20
-60.023398000000007
10
138.12873500000001
20
-59.954148000000004
10
138.35080500000001
20
-59.924067000000001
10
138.57467800000001
20
-59.934121000000005
10
138.79315700000001
20
-59.983986999999999
10
138.999222
20
-60.072064000000005
10
139.18624800000001
20
-60.195518999999997
10
139.34822500000001
20
-60.350385000000003
10
139.47994700000004
20
-60.531684000000006
10
139.57718
20
-60.733589000000009
10
139.636798
20
-60.949612000000002
10
139.65688599999999
20
-61.172808000000003
10
139.65688599999999
20
-78.657808000000003
10
139.65185399999999
20
-78.769857000000002
10
139.61184
20
-78.990353999999996
10
139.533097
20
-79.200163000000003
10
139.41815700000001
20
-79.392539999999997
10
139.270714
20
-79.561302000000012
10
139.095507
20
-79.701025000000001
10
138.898167
20
-79.807218000000006
10
138.68503699999999
20
-79.876468000000003
10
138.46296699999999
20
-79.906548999999998
10
138.23909399999999
20
-79.896495000000002
10
138.02061500000002
20
-79.846629000000007
10
137.81455
20
-79.758551999999995
10
137.62752399999999
20
-79.635097000000002
10
137.46554699999999
20
-79.480231000000003
10
137.33382499999999
20
-79.298931999999994
10
137.236592
20
-79.097026999999997
10
137.176974
20
-78.881004000000004
10
137.15688599999999
20
-78.657808000000003
10
137.15688599999999
20
-61.172808000000003
0
CIRCLE
5
136
100
AcDbEntity
8
0
100
AcDbCircle
10
106.091792
20
-58.492400000000011
30
0
40
1.6000000000000003
210
0
220
-0
230
1
0
LINE
5
137
100
AcDbEntity
8
0
100
AcDbLine
10
178.32601702586805
20
-57.000000849366188
30
0
11
178.32601702586805
21
-54.560039424305828
31
0
0
LINE
5
138
100
AcDbEntity
8
0
100
AcDbLine
10
179.1963942000842
20
-54.560039424305828
30
0
11
178.32601702586805
21
-54.560039424305828
31
0
0
LINE
5
139
100
AcDbEntity
8
0
100
AcDbLine
10
178.32601702586805
20
-54.560039424305828
30
0
11
177.51780964981026
21
-54.560039424305828
31
0
0
LINE
5
140
100
AcDbEntity
8
0
100
AcDbLine
10
180.59044001814723
20
-57.000000849366188
30
0
11
180.59044001814723
21
-56.000000834465027
31
0
0
LINE
5
141
100
AcDbEntity
8
0
100
AcDbLine
10
180.59044001814723
20
-55.798835826248627
30
0
11
181.81412815529694
21
-56.841099054572169
31
0
0
LINE
5
142
100
AcDbEntity
8
0
100
AcDbLine
10
180.59044001814723
20
-54.597670803131059
30
0
11
180.59044001814723
21
-57.000000849366188
31
0
0
SPLINE
5
143
100
AcDbEntity
8
0
100
AcDbSpline
70
4
71
5
72
31
73
25
74
0
42
0.000000001
43
0.0000000001
44
0.0000000001
40
0
40
0
40
0
40
0
40
0
40
0
40
0.050000000000000003
40
0.10000000000000001
40
0.15000000000000002
40
0.20000000000000001
40
0.25
40
0.29999999999999999
40
0.34999999999999998
40
0.39999999999999997
40
0.44999999999999996
40
0.49999999999999994
40
0.54999999999999993
40
0.59999999999999998
40
0.65000000000000002
40
0.70000000000000007
40
0.75000000000000011
40
0.80000000000000016
40
0.8500000000000002
40
0.90000000000000024
40
0.95000000000000029
40
1
40
1
40
1
40
1
40
1
40
1
41
1
41
1
41
1
41
1
41
1
41
1
41
1
41
1
41
1
41
1
41
1
41
1
41
1
41
1
41
1
41
1
41
1
41
1
41
1
41
1
41
1
41
1
41
1
41
1
41
1
10
180.59044001814723
20
-54.597670803131059
30
0
10
180.62475219172273
20
-54.562150431828101
30
0
10
180.69393333594832
20
-54.495838754574251
30
0
10
180.79937527068935
20
-54.410558339922261
30
0
10
180.94332011422125
20
-54.325341929659679
30
0
10
181.12813449608734
20
-54.266653819225681
30
0
10
181.31558177818727
20
-54.255656352613087
30
0
10
181.5009745514003
20
-54.291097342163901
30
0
10
181.67643864729911
20
-54.370013187583559
30
0
10
181.82967305661109
20
-54.486890551416124
30
0
10
181.94623828119961
20
-54.634194978572673
30
0
10
182.0124807938131
20
-54.803114604346504
30
0
10
182.01833131497318
20
-54.984174821693955
30
0
10
181.96011972999244
20
-55.167857381833791
30
0
10
181.84390417532563
20
-55.345219694761106
30
0
10
181.68278859732882
20
-55.508100682217389
30
0
10
181.49390427516036
20
-55.649290175318342
30
0
10
181.29553405191837
20
-55.762762799373959
30
0
10
181.10449555563457
20
-55.84387319772258
30
0
10
180.93280666418502
20
-55.889748599862315
30
0
10
180.78701920972577
20
-55.899147899986524
30
0
10
180.69355787705598
20
-55.877266547607988
30
0
10
180.63682260819874
20
-55.844417913591329
30
0
10
180.60491497567648
20
-55.815242553537487
30
0
10
180.59044001814723
20
-55.798835826248627
30
0
0
ENDSEC
0
SECTION
2
OBJECTS
0
DICTIONARY
5
C
100
AcDbDictionary
3
ACAD_GROUP
350
D
3
ACAD_MLINESTYLE
350
17
0
DICTIONARY
5
D
100
AcDbDictionary
0
DICTIONARY
5
1A
330
C
100
AcDbDictionary
0
DICTIONARY
5
17
100
AcDbDictionary
0
ENDSEC
0
EOF
