0
SECTION
2
HEADER
9
$INSUNITS
70
4
9
$ACADVER
1
AC1014
9
$HANDSEED
5
FFFF
0
ENDSEC
0
SECTION
2
TABLES
0
TABLE
2
VPORT
5
8
100
AcDbSymbolTable
0
ENDTAB
0
TABLE
2
LTYPE
5
5
100
AcDbSymbolTable
0
LTYPE
5
14
100
AcDbSymbolTableRecord
100
AcDbLinetypeTableRecord
2
BYBLOCK
70
0
0
LTYPE
5
15
100
AcDbSymbolTableRecord
100
AcDbLinetypeTableRecord
2
BYLAYER
70
0
0
ENDTAB
0
TABLE
2
LAYER
5
2
100
AcDbSymbolTable
70
2
0
LAYER
5
50
100
AcDbSymbolTableRecord
100
AcDbLayerTableRecord
2
0
70
0
6
CONTINUOUS
0
ENDTAB
0
TABLE
2
STYLE
5
3
100
AcDbSymbolTable
70
1
0
STYLE
5
11
100
AcDbSymbolTableRecord
100
AcDbTextStyleTableRecord
2
STANDARD
70
0
0
ENDTAB
0
TABLE
2
VIEW
5
6
100
AcDbSymbolTable
70
0
0
ENDTAB
0
TABLE
2
UCS
5
7
100
AcDbSymbolTable
70
0
0
ENDTAB
0
TABLE
2
APPID
5
9
100
AcDbSymbolTable
70
2
0
APPID
5
12
100
AcDbSymbolTableRecord
100
AcDbRegAppTableRecord
2
ACAD
70
0
0
ENDTAB
0
TABLE
2
DIMSTYLE
5
A
100
AcDbSymbolTable
70
1
0
ENDTAB
0
TABLE
2
BLOCK_RECORD
5
1
100
AcDbSymbolTable
70
1
0
BLOCK_RECORD
5
1F
100
AcDbSymbolTableRecord
100
AcDbBlockTableRecord
2
*MODEL_SPACE
0
BLOCK_RECORD
5
1B
100
AcDbSymbolTableRecord
100
AcDbBlockTableRecord
2
*PAPER_SPACE
0
ENDTAB
0
ENDSEC
0
SECTION
2
BLOCKS
0
BLOCK
5
20
100
AcDbEntity
100
AcDbBlockBegin
2
*MODEL_SPACE
0
ENDBLK
5
21
100
AcDbEntity
100
AcDbBlockEnd
0
BLOCK
5
1C
100
AcDbEntity
100
AcDbBlockBegin
2
*PAPER_SPACE
0
ENDBLK
5
1D
100
AcDbEntity
100
AcDbBlockEnd
0
ENDSEC
0
SECTION
2
ENTITIES
0
CIRCLE
5
100
100
AcDbEntity
8
0
100
AcDbCircle
10
78.799999999999997
20
94.699999999999989
30
0
40
1.5999999999999925
210
0
220
0
230
1
0
CIRCLE
5
101
100
AcDbEntity
8
0
100
AcDbCircle
10
3.7999999999999998
20
94.699999999999989
30
0
40
1.5999999999999992
210
0
220
0
230
1
0
CIRCLE
5
102
100
AcDbEntity
8
0
100
AcDbCircle
10
3.7999999999999998
20
3.2999999999999807
30
0
40
1.599999999999997
210
0
220
0
230
1
0
CIRCLE
5
103
100
AcDbEntity
8
0
100
AcDbCircle
10
41.299999999999997
20
78.499999999999986
30
0
40
5.2500000000000036
210
0
220
0
230
1
0
CIRCLE
5
104
100
AcDbEntity
8
0
100
AcDbCircle
10
78.799999999999997
20
3.2999999999999807
30
0
40
1.5999999999999925
210
0
220
0
230
1
0
LWPOLYLINE
5
105
100
AcDbEntity
8
0
100
AcDbPolyline
90
12
70
1
43
0.0
10
61.600000000000001
20
0
10
82.599999999999994
20
0
10
82.599999999999994
20
97.999999999999986
10
0
20
97.999999999999986
10
0
20
0
10
20.999999999999996
20
0
10
20.999999999999996
20
12.800000000000011
10
34.499999999999993
20
12.800000000000011
10
34.499999999999993
20
3.8000000000000078
10
48.099999999999994
20
3.8000000000000078
10
48.100000000000009
20
12.800000000000011
10
61.600000000000001
20
12.800000000000011
0
LINE
5
106
100
AcDbEntity
8
0
100
AcDbLine
10
0
20
97.999999999999986
30
0
11
0
21
0
31
0
0
LINE
5
107
100
AcDbEntity
8
0
100
AcDbLine
10
20.999999999999996
20
0
30
0
11
20.999999999999996
21
12.800000000000011
31
0
0
LINE
5
108
100
AcDbEntity
8
0
100
AcDbLine
10
20.999999999999996
20
12.800000000000011
30
0
11
34.499999999999993
21
12.800000000000011
31
0
0
LINE
5
109
100
AcDbEntity
8
0
100
AcDbLine
10
34.499999999999993
20
12.800000000000011
30
0
11
34.499999999999993
21
3.8000000000000078
31
0
0
LINE
5
110
100
AcDbEntity
8
0
100
AcDbLine
10
34.499999999999993
20
3.8000000000000078
30
0
11
48.099999999999994
21
3.8000000000000078
31
0
0
LINE
5
111
100
AcDbEntity
8
0
100
AcDbLine
10
48.099999999999994
20
3.8000000000000078
30
0
11
48.100000000000009
21
12.800000000000011
31
0
0
LINE
5
112
100
AcDbEntity
8
0
100
AcDbLine
10
48.100000000000009
20
12.800000000000011
30
0
11
61.600000000000001
21
12.800000000000011
31
0
0
LINE
5
113
100
AcDbEntity
8
0
100
AcDbLine
10
61.600000000000001
20
12.800000000000011
30
0
11
61.600000000000001
21
0
31
0
0
LINE
5
114
100
AcDbEntity
8
0
100
AcDbLine
10
61.600000000000001
20
0
30
0
11
82.599999999999994
21
0
31
0
0
LINE
5
115
100
AcDbEntity
8
0
100
AcDbLine
10
82.599999999999994
20
0
30
0
11
82.599999999999994
21
97.999999999999986
31
0
0
LINE
5
116
100
AcDbEntity
8
0
100
AcDbLine
10
82.599999999999994
20
97.999999999999986
30
0
11
0
21
97.999999999999986
31
0
0
CIRCLE
5
117
100
AcDbEntity
8
0
100
AcDbCircle
10
41.299999999999997
20
78.499999999999986
30
0
40
5.25
210
0
220
0
230
1
0
CIRCLE
5
118
100
AcDbEntity
8
0
100
AcDbCircle
10
3.7999999999999998
20
94.699999999999989
30
0
40
1.5999999999999992
210
0
220
0
230
1
0
CIRCLE
5
119
100
AcDbEntity
8
0
100
AcDbCircle
10
78.799999999999997
20
94.699999999999989
30
0
40
1.5999999999999925
210
0
220
0
230
1
0
CIRCLE
5
120
100
AcDbEntity
8
0
100
AcDbCircle
10
78.799999999999997
20
3.2999999999999807
30
0
40
1.5999999999999945
210
0
220
0
230
1
0
CIRCLE
5
121
100
AcDbEntity
8
0
100
AcDbCircle
10
3.7999999999999998
20
3.2999999999999807
30
0
40
1.599999999999997
210
0
220
0
230
1
0
LWPOLYLINE
5
122
100
AcDbEntity
8
0
100
AcDbPolyline
90
4
70
1
43
0.0
10
20.999999999999996
20
12.800000000000011
10
34.499999999999993
20
12.800000000000011
10
34.499999999999993
20
24.800000000000011
10
20.999999999999996
20
24.800000000000011
0
LWPOLYLINE
5
123
100
AcDbEntity
8
0
100
AcDbPolyline
90
4
70
1
43
0.0
10
48.100000000000009
20
12.800000000000011
10
61.600000000000001
20
12.800000000000011
10
61.600000000000001
20
24.800000000000011
10
48.100000000000009
20
24.800000000000011
0
LINE
5
124
100
AcDbEntity
8
0
100
AcDbLine
10
63.000000938773155
20
95.000001415610313
30
0
11
19.367383834803906
21
95.000001415610313
31
0
0
LINE
5
125
100
AcDbEntity
8
0
100
AcDbLine
10
80.000001192092896
20
73.000001087784767
30
0
11
80.000001192092896
21
25.00000037252903
31
0
0
LINE
5
126
100
AcDbEntity
8
0
100
AcDbLine
10
2.5999999999999979
20
73.000001087784767
30
0
11
2.5999999999999979
21
25.00000037252903
31
0
0
ARC
5
127
100
AcDbEntity
8
0
100
AcDbCircle
10
73.000001087784767
20
97.500001452863216
30
0
40
10.307764217641806
210
0
220
0
230
1
100
AcDbArc
50
194.03624346792648
51
247.16634582208246
0
ARC
5
128
100
AcDbEntity
8
0
100
AcDbCircle
10
64.272728230465532
20
73.000001087784767
30
0
40
15.727272961627357
210
0
220
0
230
1
100
AcDbArc
50
0
51
72.507675474889552
0
ARC
5
129
100
AcDbEntity
8
0
100
AcDbCircle
10
10.493172818436536
20
96.404363513496136
30
0
40
8.9846454612852824
210
0
220
0
230
1
100
AcDbArc
50
290.7048843256581
51
351.00739985186749
0
ARC
5
130
100
AcDbEntity
8
0
100
AcDbCircle
10
18.297712532191554
20
73.000001087784767
30
0
40
15.69771253219157
210
0
220
0
230
1
100
AcDbArc
50
107.14665812381917
51
180
0
ARC
5
131
100
AcDbEntity
8
0
100
AcDbCircle
10
63.605264105686999
20
25.815789858369463
30
0
40
16.415021066620053
210
0
220
0
230
1
100
AcDbArc
50
285.52902782326873
51
357.1513556685511
0
ARC
5
132
100
AcDbEntity
8
0
100
AcDbCircle
10
19.567478103580317
20
26.267714304550417
30
0
40
17.014770401298943
210
0
220
0
230
1
100
AcDbArc
50
184.2728774337597
51
253.02520827070217
0
LINE
5
133
100
AcDbEntity
8
0
100
AcDbLine
10
20.999999999999996
20
3.0265008715661583
30
0
11
20.5
21
3.0265008715661583
31
0
0
ARC
5
134
100
AcDbEntity
8
0
100
AcDbCircle
10
12.137585489061451
20
1.9273348897357212
30
0
40
8.434343027667822
210
0
220
-0
230
1
100
AcDbArc
50
7.4881007102844181
51
73.025206923040926
0
LINE
5
135
100
AcDbEntity
8
0
100
AcDbLine
10
61.600000000000001
20
3.0265008715661583
30
0
11
62.100000000000001
21
3.0265008715661583
31
0
0
ARC
5
136
100
AcDbEntity
8
0
100
AcDbCircle
10
70.173335032771703
20
2.1786004740705822
30
0
40
8.1177382093445392
210
0
220
0
230
1
100
AcDbArc
50
105.52902782326851
51
174.00450161173279
0
CIRCLE
5
137
100
AcDbEntity
8
0
100
AcDbCircle
10
30.800000000000001
20
78.499999999999986
30
0
40
1.0899999999999999
210
0
220
0
230
1
0
CIRCLE
5
138
100
AcDbEntity
8
0
100
AcDbCircle
10
51.799999999999997
20
78.499999999999986
30
0
40
1.0899999999999999
210
0
220
0
230
1
0
LWPOLYLINE
5
139
100
AcDbEntity
8
0
100
AcDbPolyline
90
4
70
1
43
0.0
10
40.300000000000004
20
69.999999999999986
10
42.300000000000004
20
69.999999999999986
10
42.300000000000004
20
67.999999999999986
10
40.300000000000004
20
67.999999999999986
0
LWPOLYLINE
5
140
100
AcDbEntity
8
0
100
AcDbPolyline
90
4
70
1
43
0.0
10
36.79999999999999
20
11.000000163912773
10
45.800000134110434
20
11.000000163912773
10
45.800000134110434
20
6.0000000894069672
10
36.79999999999999
20
6.0000000894069672
0
LINE
5
141
100
AcDbEntity
8
0
100
AcDbLine
10
67.024748782723705
20
77.243227732510206
30
0
11
67.024748782723705
21
84.843656985194471
31
0
0
LINE
5
142
100
AcDbEntity
8
0
100
AcDbLine
10
67.024748782723705
20
84.843656985194471
30
0
11
71.501187515882009
21
84.843656985194471
31
0
0
LINE
5
143
100
AcDbEntity
8
0
100
AcDbLine
10
67.024748782723705
20
81.217647502920386
30
0
11
70.501187724498266
21
81.217647502920386
31
0
0
LINE
5
144
100
AcDbEntity
8
0
100
AcDbLine
10
67.024748782723705
20
77.243227732510206
30
0
11
71.568239659009492
21
77.243227732510206
31
0
0
ENDSEC
0
SECTION
2
OBJECTS
0
DICTIONARY
5
C
100
AcDbDictionary
3
ACAD_GROUP
350
D
3
ACAD_MLINESTYLE
350
17
0
DICTIONARY
5
D
100
AcDbDictionary
0
DICTIONARY
5
1A
330
C
100
AcDbDictionary
0
DICTIONARY
5
17
100
AcDbDictionary
0
ENDSEC
0
EOF
