0
SECTION
2
HEADER
9
$INSUNITS
70
4
9
$ACADVER
1
AC1014
9
$HANDSEED
5
FFFF
0
ENDSEC
0
SECTION
2
TABLES
0
TABLE
2
VPORT
5
8
100
AcDbSymbolTable
0
ENDTAB
0
TABLE
2
LTYPE
5
5
100
AcDbSymbolTable
0
LTYPE
5
14
100
AcDbSymbolTableRecord
100
AcDbLinetypeTableRecord
2
BYBLOCK
70
0
0
LTYPE
5
15
100
AcDbSymbolTableRecord
100
AcDbLinetypeTableRecord
2
BYLAYER
70
0
0
ENDTAB
0
TABLE
2
LAYER
5
2
100
AcDbSymbolTable
70
2
0
LAYER
5
50
100
AcDbSymbolTableRecord
100
AcDbLayerTableRecord
2
0
70
0
6
CONTINUOUS
0
ENDTAB
0
TABLE
2
STYLE
5
3
100
AcDbSymbolTable
70
1
0
STYLE
5
11
100
AcDbSymbolTableRecord
100
AcDbTextStyleTableRecord
2
STANDARD
70
0
0
ENDTAB
0
TABLE
2
VIEW
5
6
100
AcDbSymbolTable
70
0
0
ENDTAB
0
TABLE
2
UCS
5
7
100
AcDbSymbolTable
70
0
0
ENDTAB
0
TABLE
2
APPID
5
9
100
AcDbSymbolTable
70
2
0
APPID
5
12
100
AcDbSymbolTableRecord
100
AcDbRegAppTableRecord
2
ACAD
70
0
0
ENDTAB
0
TABLE
2
DIMSTYLE
5
A
100
AcDbSymbolTable
70
1
0
ENDTAB
0
TABLE
2
BLOCK_RECORD
5
1
100
AcDbSymbolTable
70
1
0
BLOCK_RECORD
5
1F
100
AcDbSymbolTableRecord
100
AcDbBlockTableRecord
2
*MODEL_SPACE
0
BLOCK_RECORD
5
1B
100
AcDbSymbolTableRecord
100
AcDbBlockTableRecord
2
*PAPER_SPACE
0
ENDTAB
0
ENDSEC
0
SECTION
2
BLOCKS
0
BLOCK
5
20
100
AcDbEntity
100
AcDbBlockBegin
2
*MODEL_SPACE
0
ENDBLK
5
21
100
AcDbEntity
100
AcDbBlockEnd
0
BLOCK
5
1C
100
AcDbEntity
100
AcDbBlockBegin
2
*PAPER_SPACE
0
ENDBLK
5
1D
100
AcDbEntity
100
AcDbBlockEnd
0
ENDSEC
0
SECTION
2
ENTITIES
0
CIRCLE
5
100
100
AcDbEntity
8
0
100
AcDbCircle
10
35.500000968575478
20
-20.000001192092896
30
0
40
0.40000000000000008
210
0
220
-0
230
1
0
CIRCLE
5
101
100
AcDbEntity
8
0
100
AcDbCircle
10
25.000000968575478
20
-20.000001192092896
30
0
40
0.40000000000000008
210
0
220
-0
230
1
0
CIRCLE
5
102
100
AcDbEntity
8
0
100
AcDbCircle
10
20.000000968575478
20
-20.000001192092896
30
0
40
0.40000000000000008
210
0
220
-0
230
1
0
CIRCLE
5
103
100
AcDbEntity
8
0
100
AcDbCircle
10
22.500000968575478
20
-40.000001192092896
30
0
40
0.40000000000000008
210
0
220
-0
230
1
0
CIRCLE
5
104
100
AcDbEntity
8
0
100
AcDbCircle
10
33.000000968575478
20
-40.000001192092896
30
0
40
0.40000000000000008
210
0
220
-0
230
1
0
CIRCLE
5
105
100
AcDbEntity
8
0
100
AcDbCircle
10
38.000000968575478
20
-40.000001192092896
30
0
40
0.40000000000000008
210
0
220
-0
230
1
0
CIRCLE
5
106
100
AcDbEntity
8
0
100
AcDbCircle
10
35.500000968575478
20
-60.000001192092896
30
0
40
0.40000000000000008
210
0
220
-0
230
1
0
CIRCLE
5
107
100
AcDbEntity
8
0
100
AcDbCircle
10
25.000000968575478
20
-60.000001192092896
30
0
40
0.40000000000000008
210
0
220
-0
230
1
0
CIRCLE
5
108
100
AcDbEntity
8
0
100
AcDbCircle
10
20.000000968575478
20
-60.000001192092896
30
0
40
0.40000000000000008
210
0
220
-0
230
1
0
CIRCLE
5
109
100
AcDbEntity
8
0
100
AcDbCircle
10
22.500000968575478
20
-80.000001192092896
30
0
40
0.40000000000000008
210
0
220
-0
230
1
0
CIRCLE
5
110
100
AcDbEntity
8
0
100
AcDbCircle
10
33.000000968575478
20
-80.000001192092896
30
0
40
0.40000000000000008
210
0
220
-0
230
1
0
CIRCLE
5
111
100
AcDbEntity
8
0
100
AcDbCircle
10
38.000000968575478
20
-80.000001192092896
30
0
40
0.40000000000000008
210
0
220
-0
230
1
0
CIRCLE
5
112
100
AcDbEntity
8
0
100
AcDbCircle
10
57.500000968575478
20
-20.000001192092896
30
0
40
0.40000000000000008
210
0
220
-0
230
1
0
CIRCLE
5
113
100
AcDbEntity
8
0
100
AcDbCircle
10
68.000000968575478
20
-20.000001192092896
30
0
40
0.40000000000000008
210
0
220
-0
230
1
0
CIRCLE
5
114
100
AcDbEntity
8
0
100
AcDbCircle
10
73.000000968575478
20
-20.000001192092896
30
0
40
0.40000000000000008
210
0
220
-0
230
1
0
CIRCLE
5
115
100
AcDbEntity
8
0
100
AcDbCircle
10
70.500000968575478
20
-40.000001192092896
30
0
40
0.40000000000000008
210
0
220
-0
230
1
0
CIRCLE
5
116
100
AcDbEntity
8
0
100
AcDbCircle
10
60.000000968575478
20
-40.000001192092896
30
0
40
0.40000000000000008
210
0
220
-0
230
1
0
CIRCLE
5
117
100
AcDbEntity
8
0
100
AcDbCircle
10
55.000000968575478
20
-40.000001192092896
30
0
40
0.40000000000000008
210
0
220
-0
230
1
0
CIRCLE
5
118
100
AcDbEntity
8
0
100
AcDbCircle
10
57.500000968575478
20
-60.000001192092896
30
0
40
0.40000000000000008
210
0
220
-0
230
1
0
CIRCLE
5
119
100
AcDbEntity
8
0
100
AcDbCircle
10
68.000000968575478
20
-60.000001192092896
30
0
40
0.40000000000000008
210
0
220
-0
230
1
0
CIRCLE
5
120
100
AcDbEntity
8
0
100
AcDbCircle
10
73.000000968575478
20
-60.000001192092896
30
0
40
0.40000000000000008
210
0
220
-0
230
1
0
CIRCLE
5
121
100
AcDbEntity
8
0
100
AcDbCircle
10
57.500000968575478
20
-80.000001192092896
30
0
40
0.40000000000000008
210
0
220
-0
230
1
0
CIRCLE
5
122
100
AcDbEntity
8
0
100
AcDbCircle
10
68.000000968575478
20
-80.000001192092896
30
0
40
0.40000000000000008
210
0
220
-0
230
1
0
CIRCLE
5
123
100
AcDbEntity
8
0
100
AcDbCircle
10
73.000000968575478
20
-80.000001192092896
30
0
40
0.40000000000000008
210
0
220
-0
230
1
0
CIRCLE
5
124
100
AcDbEntity
8
0
100
AcDbCircle
10
70.500000968575478
20
-80.000001192092896
30
0
40
0.40000000000000008
210
0
220
-0
230
1
0
CIRCLE
5
125
100
AcDbEntity
8
0
100
AcDbCircle
10
60.000000968575478
20
-80.000001192092896
30
0
40
0.40000000000000008
210
0
220
-0
230
1
0
CIRCLE
5
126
100
AcDbEntity
8
0
100
AcDbCircle
10
55.000000968575478
20
-80.000001192092896
30
0
40
0.40000000000000008
210
0
220
-0
230
1
0
CIRCLE
5
127
100
AcDbEntity
8
0
100
AcDbCircle
10
70.500000968575478
20
-60.000001192092896
30
0
40
0.40000000000000008
210
0
220
-0
230
1
0
CIRCLE
5
128
100
AcDbEntity
8
0
100
AcDbCircle
10
60.000000968575478
20
-60.000001192092896
30
0
40
0.40000000000000008
210
0
220
-0
230
1
0
CIRCLE
5
129
100
AcDbEntity
8
0
100
AcDbCircle
10
55.000000968575478
20
-60.000001192092896
30
0
40
0.40000000000000008
210
0
220
-0
230
1
0
CIRCLE
5
130
100
AcDbEntity
8
0
100
AcDbCircle
10
57.500000968575478
20
-40.000001192092896
30
0
40
0.40000000000000008
210
0
220
-0
230
1
0
CIRCLE
5
131
100
AcDbEntity
8
0
100
AcDbCircle
10
68.000000968575478
20
-40.000001192092896
30
0
40
0.40000000000000008
210
0
220
-0
230
1
0
CIRCLE
5
132
100
AcDbEntity
8
0
100
AcDbCircle
10
73.000000968575478
20
-40.000001192092896
30
0
40
0.40000000000000008
210
0
220
-0
230
1
0
CIRCLE
5
133
100
AcDbEntity
8
0
100
AcDbCircle
10
70.500000968575478
20
-20.000001192092896
30
0
40
0.40000000000000008
210
0
220
-0
230
1
0
CIRCLE
5
134
100
AcDbEntity
8
0
100
AcDbCircle
10
60.000000968575478
20
-20.000001192092896
30
0
40
0.40000000000000008
210
0
220
-0
230
1
0
CIRCLE
5
135
100
AcDbEntity
8
0
100
AcDbCircle
10
55.000000968575478
20
-20.000001192092896
30
0
40
0.40000000000000008
210
0
220
-0
230
1
0
CIRCLE
5
136
100
AcDbEntity
8
0
100
AcDbCircle
10
35.500000968575478
20
-80.000001192092896
30
0
40
0.40000000000000008
210
0
220
-0
230
1
0
CIRCLE
5
137
100
AcDbEntity
8
0
100
AcDbCircle
10
25.000000968575478
20
-80.000001192092896
30
0
40
0.40000000000000008
210
0
220
-0
230
1
0
CIRCLE
5
138
100
AcDbEntity
8
0
100
AcDbCircle
10
20.000000968575478
20
-80.000001192092896
30
0
40
0.40000000000000008
210
0
220
-0
230
1
0
CIRCLE
5
139
100
AcDbEntity
8
0
100
AcDbCircle
10
22.500000968575478
20
-60.000001192092896
30
0
40
0.40000000000000008
210
0
220
-0
230
1
0
CIRCLE
5
140
100
AcDbEntity
8
0
100
AcDbCircle
10
33.000000968575478
20
-60.000001192092896
30
0
40
0.40000000000000008
210
0
220
-0
230
1
0
CIRCLE
5
141
100
AcDbEntity
8
0
100
AcDbCircle
10
38.000000968575478
20
-60.000001192092896
30
0
40
0.40000000000000008
210
0
220
-0
230
1
0
CIRCLE
5
142
100
AcDbEntity
8
0
100
AcDbCircle
10
35.500000968575478
20
-40.000001192092896
30
0
40
0.40000000000000008
210
0
220
-0
230
1
0
CIRCLE
5
143
100
AcDbEntity
8
0
100
AcDbCircle
10
25.000000968575478
20
-40.000001192092896
30
0
40
0.40000000000000008
210
0
220
-0
230
1
0
CIRCLE
5
144
100
AcDbEntity
8
0
100
AcDbCircle
10
20.000000968575478
20
-40.000001192092896
30
0
40
0.40000000000000008
210
0
220
-0
230
1
0
CIRCLE
5
145
100
AcDbEntity
8
0
100
AcDbCircle
10
22.500000968575478
20
-20.000001192092896
30
0
40
0.40000000000000008
210
0
220
-0
230
1
0
CIRCLE
5
146
100
AcDbEntity
8
0
100
AcDbCircle
10
33.000000968575478
20
-20.000001192092896
30
0
40
0.40000000000000008
210
0
220
-0
230
1
0
CIRCLE
5
147
100
AcDbEntity
8
0
100
AcDbCircle
10
38.000000968575478
20
-20.000001192092896
30
0
40
0.40000000000000008
210
0
220
-0
230
1
0
CIRCLE
5
148
100
AcDbEntity
8
0
100
AcDbCircle
10
29.000000968575481
20
-74.000001192092896
30
0
40
1.25
210
0
220
-0
230
1
0
CIRCLE
5
149
100
AcDbEntity
8
0
100
AcDbCircle
10
29.000000968575481
20
-54.000001192092896
30
0
40
1.25
210
0
220
-0
230
1
0
CIRCLE
5
150
100
AcDbEntity
8
0
100
AcDbCircle
10
29.000000968575481
20
-34.000001192092896
30
0
40
1.25
210
0
220
-0
230
1
0
CIRCLE
5
151
100
AcDbEntity
8
0
100
AcDbCircle
10
29.000000968575481
20
-14.000001192092899
30
0
40
1.25
210
0
220
-0
230
1
0
CIRCLE
5
152
100
AcDbEntity
8
0
100
AcDbCircle
10
64.000000968575478
20
-26.000001281499863
30
0
40
1.25
210
0
220
-0
230
1
0
CIRCLE
5
153
100
AcDbEntity
8
0
100
AcDbCircle
10
64.000000968575478
20
-46.000001281499863
30
0
40
1.25
210
0
220
-0
230
1
0
CIRCLE
5
154
100
AcDbEntity
8
0
100
AcDbCircle
10
64.000000968575478
20
-66.000001281499863
30
0
40
1.25
210
0
220
-0
230
1
0
CIRCLE
5
155
100
AcDbEntity
8
0
100
AcDbCircle
10
64.000000968575478
20
-86.000001281499863
30
0
40
1.25
210
0
220
-0
230
1
0
CIRCLE
5
156
100
AcDbEntity
8
0
100
AcDbCircle
10
64.000000968575478
20
-74.000001192092896
30
0
40
1.25
210
0
220
-0
230
1
0
CIRCLE
5
157
100
AcDbEntity
8
0
100
AcDbCircle
10
64.000000968575478
20
-54.000001192092896
30
0
40
1.25
210
0
220
-0
230
1
0
CIRCLE
5
158
100
AcDbEntity
8
0
100
AcDbCircle
10
64.000000968575478
20
-34.000001192092896
30
0
40
1.25
210
0
220
-0
230
1
0
CIRCLE
5
159
100
AcDbEntity
8
0
100
AcDbCircle
10
64.000000968575478
20
-14.000001192092899
30
0
40
1.25
210
0
220
-0
230
1
0
CIRCLE
5
160
100
AcDbEntity
8
0
100
AcDbCircle
10
29.000000968575481
20
-26.000001281499863
30
0
40
1.25
210
0
220
-0
230
1
0
CIRCLE
5
161
100
AcDbEntity
8
0
100
AcDbCircle
10
29.000000968575481
20
-46.000001281499863
30
0
40
1.25
210
0
220
-0
230
1
0
CIRCLE
5
162
100
AcDbEntity
8
0
100
AcDbCircle
10
29.000000968575481
20
-66.000001281499863
30
0
40
1.25
210
0
220
-0
230
1
0
CIRCLE
5
163
100
AcDbEntity
8
0
100
AcDbCircle
10
29.000000968575481
20
-86.000001281499863
30
0
40
1.25
210
0
220
-0
230
1
0
CIRCLE
5
164
100
AcDbEntity
8
0
100
AcDbCircle
10
27
20
-3.2000000000000006
30
0
40
1.6000000000000014
210
0
220
-0
230
1
0
CIRCLE
5
165
100
AcDbEntity
8
0
100
AcDbCircle
10
3.2000000000000006
20
-71.000000000000014
30
0
40
1.6000000000000028
210
0
220
-0
230
1
0
CIRCLE
5
166
100
AcDbEntity
8
0
100
AcDbCircle
10
94.800000000000011
20
-27
30
0
40
1.6000000000000014
210
0
220
-0
230
1
0
CIRCLE
5
167
100
AcDbEntity
8
0
100
AcDbCircle
10
3.2000000000000006
20
-27
30
0
40
1.6000000000000003
210
0
220
-0
230
1
0
CIRCLE
5
168
100
AcDbEntity
8
0
100
AcDbCircle
10
71.000000000000014
20
-94.800000000000011
30
0
40
1.6000000000000014
210
0
220
-0
230
1
0
CIRCLE
5
169
100
AcDbEntity
8
0
100
AcDbCircle
10
94.800000000000011
20
-71.000000000000014
30
0
40
1.6000000000000014
210
0
220
-0
230
1
0
CIRCLE
5
170
100
AcDbEntity
8
0
100
AcDbCircle
10
27
20
-94.800000000000011
30
0
40
1.6000000000000014
210
0
220
-0
230
1
0
CIRCLE
5
171
100
AcDbEntity
8
0
100
AcDbCircle
10
71.000000000000014
20
-3.2000000000000006
30
0
40
1.6000000000000014
210
0
220
-0
230
1
0
LWPOLYLINE
5
172
100
AcDbEntity
8
0
100
AcDbPolyline
90
12
70
1
43
0.0
10
7.7000000000000002
20
0
10
7.7000000000000002
20
-7.7000000000000002
10
0
20
-7.7000000000000002
10
0
20
-90.300000000000011
10
7.7000000000000002
20
-90.300000000000011
10
7.7000000000000002
20
-98
10
90.300000000000011
20
-98
10
90.300000000000011
20
-90.300000000000011
10
98
20
-90.300000000000011
10
98
20
-7.6999999999999957
10
90.300000000000011
20
-7.7000000000000002
10
90.300000000000011
20
0
0
ENDSEC
0
SECTION
2
OBJECTS
0
DICTIONARY
5
C
100
AcDbDictionary
3
ACAD_GROUP
350
D
3
ACAD_MLINESTYLE
350
17
0
DICTIONARY
5
D
100
AcDbDictionary
0
DICTIONARY
5
1A
330
C
100
AcDbDictionary
0
DICTIONARY
5
17
100
AcDbDictionary
0
ENDSEC
0
EOF
